<svg width="134" height="88" viewBox="0 0 134 88" fill="none" xmlns="http://www.w3.org/2000/svg">
<path d="M89.2057 25.8269L103.639 50.2804L93.3058 53.9247L89.2057 25.8269Z" fill="#EAD300"/>
<path d="M15.5463 51.6871L38.1586 49.594L37.4847 58.1597L15.5463 51.6871Z" fill="#EA0000"/>
<circle cx="65.052" cy="60.8889" r="2.3723" fill="#9F00EA"/>
<circle cx="69.7966" cy="37.166" r="5.53536" fill="#EAA900"/>
<rect x="42.1201" y="82.4661" width="15.8153" height="7.90766" transform="rotate(-45.5869 42.1201 82.4661)" fill="#EAA900"/>
<rect x="117.832" y="26.886" width="4.7446" height="7.90766" transform="rotate(21.9912 117.832 26.886)" fill="#EA0000"/>
<rect x="63.3198" y="19.7937" width="18.9784" height="6.32613" transform="rotate(-116.768 63.3198 19.7937)" fill="#EA0000"/>
<path d="M1.00034 40.42C1.00034 40.42 11.1131 35.3831 13.4072 38.0231C14.6675 39.4735 15.6193 41.2302 14.4906 42.6574C13.6204 43.7576 12.3642 43.8979 10.8923 43.6394C7.77532 43.092 7.8226 38.7635 9.07382 36.0827C10.8014 32.3814 19.9717 34.5661 19.9717 34.5661" stroke="#05EA00" stroke-width="1.89784"/>
<path d="M35.9233 71.1689C35.9233 71.1689 35.1534 66.5954 37.3629 65.6839C39.2191 64.9181 40.8283 68.3047 42.3535 67.0769C43.8984 65.8332 40.0418 63.863 41.2978 62.3755C42.6196 60.8099 46.8642 62.3755 46.8642 62.3755" stroke="#005EEA" stroke-width="1.89784"/>
<path d="M30.7445 13.4431C30.7445 17.3736 37.0444 20.56 32.6605 20.56C28.2765 20.56 24.7227 17.3736 24.7227 13.4431C24.7227 9.51251 28.2765 6.32617 32.6605 6.32617C37.0444 6.32617 30.7445 9.51251 30.7445 13.4431Z" fill="#9F00EA"/>
<path d="M123.156 59.6944C125.763 59.9568 128.297 55.9907 128.005 58.8986C127.712 61.8066 125.361 63.9512 122.754 63.6888C120.147 63.4264 118.27 60.8563 118.563 57.9483C118.856 55.0404 120.549 59.432 123.156 59.6944Z" fill="#005EEA"/>
<path d="M99.0551 66.4243L100.83 71.8884H106.576L101.928 75.2653L103.703 80.7294L99.0551 77.3524L94.4071 80.7294L96.1825 75.2653L91.5345 71.8884H97.2797L99.0551 66.4243Z" fill="#05EA00"/>
<path d="M42.1201 39.5383L43.1853 42.8168H46.6325L43.8437 44.8429L44.9089 48.1214L42.1201 46.0952L39.3313 48.1214L40.3965 44.8429L37.6077 42.8168H41.0549L42.1201 39.5383Z" fill="#EAD300"/>
<path d="M85.886 19.4776L86.6736 12.6845L92.1641 16.1652L92.79 10.4666L97.7981 13.9165L99.3579 7.75582" stroke="#005EEA" stroke-width="1.58153"/>
</svg>
