<svg width="59" height="142" viewBox="0 0 59 142" fill="none" xmlns="http://www.w3.org/2000/svg">
<path d="M1.408 18V6.72H2.736V11.712H9.536V6.72H10.848V18H9.536V12.848H2.736V18H1.408ZM16.81 18.144C16.042 18.144 15.37 17.9787 14.794 17.648C14.2287 17.3067 13.7913 16.8267 13.482 16.208C13.1727 15.5787 13.018 14.8373 13.018 13.984C13.018 13.12 13.1727 12.3787 13.482 11.76C13.7913 11.1413 14.2287 10.6667 14.794 10.336C15.37 9.99467 16.042 9.824 16.81 9.824C17.5887 9.824 18.2607 9.99467 18.826 10.336C19.402 10.6667 19.8447 11.1413 20.154 11.76C20.474 12.3787 20.634 13.12 20.634 13.984C20.634 14.8373 20.474 15.5787 20.154 16.208C19.8447 16.8267 19.402 17.3067 18.826 17.648C18.2607 17.9787 17.5887 18.144 16.81 18.144ZM16.81 17.088C17.578 17.088 18.186 16.8267 18.634 16.304C19.082 15.7707 19.306 14.9973 19.306 13.984C19.306 12.96 19.0767 12.1867 18.618 11.664C18.17 11.1307 17.5673 10.864 16.81 10.864C16.0527 10.864 15.45 11.1307 15.002 11.664C14.554 12.1867 14.33 12.96 14.33 13.984C14.33 14.9973 14.554 15.7707 15.002 16.304C15.45 16.8267 16.0527 17.088 16.81 17.088ZM22.6546 18V11.824C22.6546 11.5253 22.6386 11.2213 22.6066 10.912C22.5853 10.592 22.5586 10.2773 22.5266 9.968H23.7746L23.9346 11.728H23.7426C23.956 11.12 24.292 10.6507 24.7506 10.32C25.22 9.98933 25.7853 9.824 26.4466 9.824C27.1186 9.824 27.6626 9.984 28.0786 10.304C28.5053 10.624 28.7933 11.12 28.9426 11.792H28.7026C28.9053 11.184 29.2626 10.704 29.7746 10.352C30.2866 10 30.884 9.824 31.5666 9.824C32.452 9.824 33.1186 10.08 33.5666 10.592C34.0146 11.0933 34.2386 11.888 34.2386 12.976V18H32.9426V13.056C32.9426 12.2987 32.8093 11.7493 32.5426 11.408C32.276 11.056 31.8493 10.88 31.2626 10.88C30.5906 10.88 30.0573 11.1147 29.6626 11.584C29.2786 12.0427 29.0866 12.6613 29.0866 13.44V18H27.7906V13.056C27.7906 12.2987 27.6573 11.7493 27.3906 11.408C27.124 11.056 26.6973 10.88 26.1106 10.88C25.4386 10.88 24.9106 11.1147 24.5266 11.584C24.1426 12.0427 23.9506 12.6613 23.9506 13.44V18H22.6546ZM40.2695 18.144C39.0108 18.144 38.0188 17.7813 37.2935 17.056C36.5682 16.32 36.2055 15.3013 36.2055 14C36.2055 13.1573 36.3655 12.4267 36.6855 11.808C37.0055 11.1787 37.4535 10.6933 38.0295 10.352C38.6055 10 39.2668 9.824 40.0135 9.824C40.7495 9.824 41.3682 9.97867 41.8695 10.288C42.3708 10.5973 42.7548 11.04 43.0215 11.616C43.2882 12.1813 43.4215 12.8533 43.4215 13.632V14.112H37.1975V13.296H42.5735L42.3015 13.504C42.3015 12.6507 42.1095 11.984 41.7255 11.504C41.3415 11.024 40.7708 10.784 40.0135 10.784C39.2135 10.784 38.5895 11.0667 38.1415 11.632C37.6935 12.1867 37.4695 12.9387 37.4695 13.888V14.032C37.4695 15.0347 37.7148 15.7973 38.2055 16.32C38.7068 16.832 39.4055 17.088 40.3015 17.088C40.7815 17.088 41.2295 17.0187 41.6455 16.88C42.0722 16.7307 42.4775 16.4907 42.8615 16.16L43.3095 17.072C42.9575 17.4133 42.5095 17.68 41.9655 17.872C41.4322 18.0533 40.8668 18.144 40.2695 18.144Z" fill="white"/>
<path d="M8.864 74.072H2.912L1.648 77H0.288L5.296 65.608H6.448L11.456 77H10.112L8.864 74.072ZM8.4 72.984L5.888 67.128L3.376 72.984H8.4ZM17.014 68.76C17.718 68.76 18.342 68.9307 18.886 69.272C19.43 69.6133 19.8513 70.0987 20.15 70.728C20.4487 71.3467 20.598 72.072 20.598 72.904C20.598 73.736 20.4487 74.472 20.15 75.112C19.8513 75.7413 19.43 76.232 18.886 76.584C18.342 76.936 17.718 77.112 17.014 77.112C16.3847 77.112 15.8353 76.9733 15.366 76.696C14.8967 76.4187 14.5393 76.024 14.294 75.512V77H12.998V65.224H14.294V70.376C14.5287 69.8533 14.8807 69.4533 15.35 69.176C15.83 68.8987 16.3847 68.76 17.014 68.76ZM16.774 76.04C17.5527 76.04 18.1607 75.768 18.598 75.224C19.0353 74.6693 19.254 73.896 19.254 72.904C19.254 71.9333 19.0353 71.1813 18.598 70.648C18.1713 70.1147 17.5633 69.848 16.774 69.848C15.974 69.848 15.3607 70.1147 14.934 70.648C14.5073 71.1813 14.294 71.944 14.294 72.936C14.294 73.928 14.5073 74.696 14.934 75.24C15.3607 75.7733 15.974 76.04 16.774 76.04ZM25.9198 77.112C25.1624 77.112 24.4958 76.9413 23.9198 76.6C23.3438 76.2587 22.8958 75.7733 22.5758 75.144C22.2664 74.5147 22.1118 73.7787 22.1118 72.936C22.1118 72.0933 22.2664 71.3573 22.5758 70.728C22.8958 70.0987 23.3438 69.6133 23.9198 69.272C24.4958 68.9307 25.1624 68.76 25.9198 68.76C26.6771 68.76 27.3438 68.9307 27.9198 69.272C28.4958 69.6133 28.9384 70.0987 29.2478 70.728C29.5678 71.3573 29.7278 72.0933 29.7278 72.936C29.7278 73.7787 29.5678 74.5147 29.2478 75.144C28.9384 75.7733 28.4958 76.2587 27.9198 76.6C27.3438 76.9413 26.6771 77.112 25.9198 77.112ZM25.9198 76.04C26.7198 76.04 27.3331 75.7787 27.7598 75.256C28.1864 74.7227 28.3998 73.9493 28.3998 72.936C28.3998 71.9547 28.1811 71.1973 27.7438 70.664C27.3064 70.12 26.6984 69.848 25.9198 69.848C25.1304 69.848 24.5171 70.12 24.0798 70.664C23.6424 71.1973 23.4238 71.9547 23.4238 72.936C23.4238 73.9493 23.6371 74.7227 24.0638 75.256C24.5011 75.7787 25.1198 76.04 25.9198 76.04ZM38.484 68.952V77H37.22V75.608C36.964 76.0987 36.6067 76.472 36.148 76.728C35.6893 76.984 35.172 77.112 34.596 77.112C33.6467 77.112 32.9267 76.8453 32.436 76.312C31.9453 75.7787 31.7 74.9893 31.7 73.944V68.952H32.996V73.912C32.996 74.6373 33.1453 75.1707 33.444 75.512C33.7427 75.8533 34.196 76.024 34.804 76.024C35.5187 76.024 36.0947 75.7947 36.532 75.336C36.9693 74.8667 37.188 74.2533 37.188 73.496V68.952H38.484ZM42.7104 69.976V74.376C42.7104 74.9733 42.833 75.3947 43.0784 75.64C43.3237 75.8747 43.6704 75.992 44.1184 75.992C44.417 75.992 44.705 75.944 44.9824 75.848V76.952C44.6517 77.0587 44.2784 77.112 43.8624 77.112C43.0944 77.112 42.4917 76.8987 42.0544 76.472C41.6277 76.0347 41.4144 75.3947 41.4144 74.552V69.976H39.8464V68.952H41.4144V66.888L42.7104 66.424V68.952H45.0144V69.976H42.7104Z" fill="white"/>
<path d="M5.024 136.128C3.24267 136.128 1.824 135.648 0.768 134.688L1.264 133.68C1.82933 134.16 2.40533 134.501 2.992 134.704C3.57867 134.907 4.26133 135.008 5.04 135.008C5.95733 135.008 6.66133 134.832 7.152 134.48C7.65333 134.117 7.904 133.611 7.904 132.96C7.904 132.576 7.78133 132.267 7.536 132.032C7.30133 131.787 6.98667 131.595 6.592 131.456C6.208 131.317 5.69067 131.173 5.04 131.024C4.16533 130.832 3.44533 130.624 2.88 130.4C2.31467 130.176 1.856 129.856 1.504 129.44C1.152 129.013 0.976 128.459 0.976 127.776C0.976 127.125 1.14667 126.555 1.488 126.064C1.82933 125.563 2.30933 125.173 2.928 124.896C3.55733 124.619 4.288 124.48 5.12 124.48C5.90933 124.48 6.64533 124.603 7.328 124.848C8.01067 125.093 8.58667 125.451 9.056 125.92L8.544 126.928C8.01067 126.469 7.46667 126.133 6.912 125.92C6.368 125.707 5.77067 125.6 5.12 125.6C4.23467 125.6 3.54133 125.792 3.04 126.176C2.53867 126.549 2.288 127.067 2.288 127.728C2.288 128.304 2.50667 128.736 2.944 129.024C3.38133 129.312 4.05333 129.563 4.96 129.776C5.94133 130.011 6.70933 130.229 7.264 130.432C7.82933 130.624 8.29867 130.923 8.672 131.328C9.04533 131.723 9.232 132.251 9.232 132.912C9.232 133.552 9.06133 134.117 8.72 134.608C8.37867 135.088 7.888 135.461 7.248 135.728C6.61867 135.995 5.87733 136.128 5.024 136.128ZM11.2168 127.952H12.5128V136H11.2168V127.952ZM12.6728 124.544V126.016H11.0888V124.544H12.6728ZM22.1973 127.952V135.936C22.1973 137.131 21.8879 138.032 21.2693 138.64C20.6613 139.259 19.7599 139.568 18.5653 139.568C17.3386 139.568 16.2826 139.291 15.3973 138.736L15.6213 137.68C16.1333 137.968 16.6133 138.176 17.0613 138.304C17.5199 138.432 18.0213 138.496 18.5653 138.496C19.3439 138.496 19.9306 138.288 20.3253 137.872C20.7199 137.467 20.9173 136.859 20.9173 136.048V134.144C20.6719 134.656 20.3093 135.056 19.8293 135.344C19.3599 135.621 18.7999 135.76 18.1493 135.76C17.4453 135.76 16.8159 135.595 16.2613 135.264C15.7173 134.933 15.2959 134.464 14.9973 133.856C14.6986 133.248 14.5493 132.549 14.5493 131.76C14.5493 130.971 14.6986 130.272 14.9973 129.664C15.2959 129.056 15.7173 128.587 16.2613 128.256C16.8159 127.925 17.4453 127.76 18.1493 127.76C18.7893 127.76 19.3439 127.899 19.8133 128.176C20.2933 128.453 20.6559 128.843 20.9013 129.344V127.952H22.1973ZM18.4053 134.672C19.1839 134.672 19.7919 134.416 20.2293 133.904C20.6773 133.381 20.9013 132.667 20.9013 131.76C20.9013 130.853 20.6773 130.144 20.2293 129.632C19.7919 129.109 19.1839 128.848 18.4053 128.848C17.6159 128.848 16.9919 129.109 16.5333 129.632C16.0853 130.144 15.8613 130.853 15.8613 131.76C15.8613 132.667 16.0853 133.381 16.5333 133.904C16.9919 134.416 17.6159 134.672 18.4053 134.672ZM28.7015 127.76C30.6322 127.76 31.5975 128.821 31.5975 130.944V136H30.3015V131.008C30.3015 130.261 30.1522 129.717 29.8535 129.376C29.5548 129.024 29.0855 128.848 28.4455 128.848C27.6988 128.848 27.1015 129.077 26.6535 129.536C26.2055 129.995 25.9815 130.613 25.9815 131.392V136H24.6855V130.208C24.6855 129.376 24.6428 128.624 24.5575 127.952H25.7895L25.9175 129.392C26.1628 128.869 26.5308 128.469 27.0215 128.192C27.5122 127.904 28.0722 127.76 28.7015 127.76ZM42.8248 136.128C41.3314 136.128 40.2008 135.744 39.4328 134.976C38.6754 134.197 38.2968 133.051 38.2968 131.536V124.608H39.5928V131.648C39.5928 132.757 39.8648 133.595 40.4088 134.16C40.9528 134.725 41.7581 135.008 42.8248 135.008C43.8808 135.008 44.6754 134.725 45.2088 134.16C45.7528 133.595 46.0248 132.757 46.0248 131.648V124.608H47.3368V131.536C47.3368 133.04 46.9528 134.181 46.1848 134.96C45.4168 135.739 44.2968 136.128 42.8248 136.128ZM53.9359 127.76C54.6399 127.76 55.2639 127.936 55.8079 128.288C56.3519 128.64 56.7732 129.136 57.0719 129.776C57.3705 130.405 57.5199 131.136 57.5199 131.968C57.5199 132.8 57.3705 133.531 57.0719 134.16C56.7732 134.779 56.3519 135.259 55.8079 135.6C55.2745 135.941 54.6505 136.112 53.9359 136.112C53.3065 136.112 52.7572 135.973 52.2879 135.696C51.8185 135.419 51.4612 135.024 51.2159 134.512V139.456H49.9199V130.208C49.9199 129.376 49.8772 128.624 49.7919 127.952H51.0239L51.1519 129.504C51.3759 128.949 51.7279 128.523 52.2079 128.224C52.6985 127.915 53.2745 127.76 53.9359 127.76ZM53.6959 135.04C54.4852 135.04 55.0932 134.773 55.5199 134.24C55.9572 133.707 56.1759 132.949 56.1759 131.968C56.1759 130.987 55.9572 130.224 55.5199 129.68C55.0825 129.125 54.4745 128.848 53.6959 128.848C52.8959 128.848 52.2825 129.115 51.8559 129.648C51.4292 130.181 51.2159 130.944 51.2159 131.936C51.2159 132.928 51.4292 133.696 51.8559 134.24C52.2825 134.773 52.8959 135.04 53.6959 135.04Z" fill="white"/>
</svg>
