<svg width="102" height="142" viewBox="0 0 102 142" fill="none" xmlns="http://www.w3.org/2000/svg">
<path d="M5.024 18.128C3.24267 18.128 1.824 17.648 0.768 16.688L1.264 15.68C1.82933 16.16 2.40533 16.5013 2.992 16.704C3.57867 16.9067 4.26133 17.008 5.04 17.008C5.95733 17.008 6.66133 16.832 7.152 16.48C7.65333 16.1173 7.904 15.6107 7.904 14.96C7.904 14.576 7.78133 14.2667 7.536 14.032C7.30133 13.7867 6.98667 13.5947 6.592 13.456C6.208 13.3173 5.69067 13.1733 5.04 13.024C4.16533 12.832 3.44533 12.624 2.88 12.4C2.31467 12.176 1.856 11.856 1.504 11.44C1.152 11.0133 0.976 10.4587 0.976 9.776C0.976 9.12533 1.14667 8.55467 1.488 8.064C1.82933 7.56267 2.30933 7.17333 2.928 6.896C3.55733 6.61867 4.288 6.48 5.12 6.48C5.90933 6.48 6.64533 6.60267 7.328 6.848C8.01067 7.09333 8.58667 7.45067 9.056 7.92L8.544 8.928C8.01067 8.46933 7.46667 8.13333 6.912 7.92C6.368 7.70667 5.77067 7.6 5.12 7.6C4.23467 7.6 3.54133 7.792 3.04 8.176C2.53867 8.54933 2.288 9.06667 2.288 9.728C2.288 10.304 2.50667 10.736 2.944 11.024C3.38133 11.312 4.05333 11.5627 4.96 11.776C5.94133 12.0107 6.70933 12.2293 7.264 12.432C7.82933 12.624 8.29867 12.9227 8.672 13.328C9.04533 13.7227 9.232 14.2507 9.232 14.912C9.232 15.552 9.06133 16.1173 8.72 16.608C8.37867 17.088 7.888 17.4613 7.248 17.728C6.61867 17.9947 5.87733 18.128 5.024 18.128ZM17.9528 13.936H12.0488C12.0594 14.96 12.2941 15.7333 12.7528 16.256C13.2221 16.7787 13.8994 17.04 14.7848 17.04C15.7234 17.04 16.5874 16.7253 17.3768 16.096L17.8088 17.04C17.4568 17.3707 17.0034 17.632 16.4488 17.824C15.9048 18.016 15.3448 18.112 14.7688 18.112C13.5101 18.112 12.5234 17.744 11.8088 17.008C11.0941 16.2613 10.7368 15.2427 10.7368 13.952C10.7368 13.1307 10.8968 12.4053 11.2168 11.776C11.5368 11.136 11.9848 10.64 12.5608 10.288C13.1368 9.936 13.7928 9.76 14.5288 9.76C15.5954 9.76 16.4328 10.112 17.0408 10.816C17.6488 11.5093 17.9528 12.4693 17.9528 13.696V13.936ZM14.5448 10.768C13.8728 10.768 13.3234 10.9707 12.8968 11.376C12.4808 11.7813 12.2141 12.352 12.0968 13.088H16.7848C16.7208 12.3307 16.4968 11.7547 16.1128 11.36C15.7394 10.9653 15.2168 10.768 14.5448 10.768ZM23.6639 9.76C23.9305 9.76 24.1759 9.792 24.3999 9.856L24.3679 11.04C24.1225 10.9547 23.8399 10.912 23.5199 10.912C22.7412 10.912 22.1599 11.1573 21.7759 11.648C21.4025 12.128 21.2159 12.7147 21.2159 13.408V18H19.9199V12.208C19.9199 11.376 19.8772 10.624 19.7919 9.952H21.0239L21.1519 11.44C21.3545 10.896 21.6799 10.48 22.1279 10.192C22.5759 9.904 23.0879 9.76 23.6639 9.76ZM33.2731 9.968L29.8011 18H28.5691L25.1451 9.968H26.5051L29.2251 16.592L31.9771 9.968H33.2731ZM34.7011 9.952H35.9971V18H34.7011V9.952ZM36.1571 6.544V8.016H34.5731V6.544H36.1571ZM41.8896 18.112C41.111 18.112 40.4283 17.9413 39.8416 17.6C39.2656 17.2587 38.8176 16.7787 38.4976 16.16C38.1883 15.5307 38.0336 14.8 38.0336 13.968C38.0336 13.136 38.1936 12.4053 38.5136 11.776C38.8336 11.136 39.287 10.64 39.8736 10.288C40.471 9.936 41.1643 9.76 41.9536 9.76C42.4976 9.76 43.0203 9.856 43.5216 10.048C44.0336 10.2293 44.455 10.4853 44.7856 10.816L44.3536 11.776C43.9483 11.456 43.5536 11.2213 43.1696 11.072C42.7963 10.9227 42.4123 10.848 42.0176 10.848C41.1963 10.848 40.551 11.1253 40.0816 11.68C39.6123 12.224 39.3776 12.9867 39.3776 13.968C39.3776 14.9387 39.607 15.696 40.0656 16.24C40.535 16.7733 41.1856 17.04 42.0176 17.04C42.4123 17.04 42.7963 16.9653 43.1696 16.816C43.5536 16.6667 43.9483 16.432 44.3536 16.112L44.7856 17.072C44.4443 17.392 44.0123 17.648 43.4896 17.84C42.9776 18.0213 42.4443 18.112 41.8896 18.112ZM53.1715 13.936H47.2675C47.2782 14.96 47.5128 15.7333 47.9715 16.256C48.4408 16.7787 49.1182 17.04 50.0035 17.04C50.9422 17.04 51.8062 16.7253 52.5955 16.096L53.0275 17.04C52.6755 17.3707 52.2222 17.632 51.6675 17.824C51.1235 18.016 50.5635 18.112 49.9875 18.112C48.7288 18.112 47.7422 17.744 47.0275 17.008C46.3128 16.2613 45.9555 15.2427 45.9555 13.952C45.9555 13.1307 46.1155 12.4053 46.4355 11.776C46.7555 11.136 47.2035 10.64 47.7795 10.288C48.3555 9.936 49.0115 9.76 49.7475 9.76C50.8142 9.76 51.6515 10.112 52.2595 10.816C52.8675 11.5093 53.1715 12.4693 53.1715 13.696V13.936ZM49.7635 10.768C49.0915 10.768 48.5422 10.9707 48.1155 11.376C47.6995 11.7813 47.4328 12.352 47.3155 13.088H52.0035C51.9395 12.3307 51.7155 11.7547 51.3315 11.36C50.9582 10.9653 50.4355 10.768 49.7635 10.768ZM57.8586 18.112C56.504 18.112 55.432 17.7653 54.6426 17.072L55.0746 16.112C55.512 16.4533 55.9546 16.6987 56.4026 16.848C56.8506 16.9973 57.352 17.072 57.9066 17.072C58.5146 17.072 58.9733 16.9707 59.2826 16.768C59.6026 16.5547 59.7626 16.2507 59.7626 15.856C59.7626 15.536 59.656 15.28 59.4426 15.088C59.2293 14.896 58.8773 14.7467 58.3866 14.64L57.0266 14.32C56.3546 14.1707 55.832 13.904 55.4586 13.52C55.096 13.136 54.9146 12.6773 54.9146 12.144C54.9146 11.44 55.1973 10.8693 55.7626 10.432C56.328 9.984 57.0746 9.76 58.0026 9.76C58.568 9.76 59.1013 9.85067 59.6026 10.032C60.104 10.2133 60.5253 10.4747 60.8666 10.816L60.4346 11.76C59.6773 11.1307 58.8666 10.816 58.0026 10.816C57.4266 10.816 56.9786 10.928 56.6586 11.152C56.3493 11.3653 56.1946 11.6693 56.1946 12.064C56.1946 12.3947 56.2906 12.656 56.4826 12.848C56.6853 13.04 57.0053 13.1893 57.4426 13.296L58.8026 13.632C59.5493 13.8027 60.104 14.0693 60.4666 14.432C60.8293 14.784 61.0106 15.248 61.0106 15.824C61.0106 16.5173 60.728 17.072 60.1626 17.488C59.5973 17.904 58.8293 18.112 57.8586 18.112Z" fill="white"/>
<path d="M6.32 77.144C5.18933 77.144 4.22933 76.9093 3.44 76.44C2.65067 75.9707 2.04267 75.304 1.616 74.44C1.2 73.576 0.992 72.5467 0.992 71.352C0.992 70.1573 1.2 69.1333 1.616 68.28C2.04267 67.416 2.65067 66.7493 3.44 66.28C4.22933 65.8107 5.18933 65.576 6.32 65.576C7.12 65.576 7.83467 65.6987 8.464 65.944C9.09333 66.1893 9.64267 66.5467 10.112 67.016L9.616 68.072C9.104 67.624 8.59733 67.2987 8.096 67.096C7.59467 66.8827 7.008 66.776 6.336 66.776C5.04533 66.776 4.064 67.176 3.392 67.976C2.72 68.776 2.384 69.9013 2.384 71.352C2.384 72.8027 2.72 73.9333 3.392 74.744C4.064 75.544 5.04533 75.944 6.336 75.944C7.008 75.944 7.59467 75.8427 8.096 75.64C8.59733 75.4267 9.104 75.0907 9.616 74.632L10.112 75.704C9.64267 76.1627 9.09333 76.52 8.464 76.776C7.83467 77.0213 7.12 77.144 6.32 77.144ZM14.935 77.144C14.167 77.144 13.495 76.9787 12.919 76.648C12.3537 76.3067 11.9163 75.8267 11.607 75.208C11.2977 74.5787 11.143 73.8373 11.143 72.984C11.143 72.12 11.2977 71.3787 11.607 70.76C11.9163 70.1413 12.3537 69.6667 12.919 69.336C13.495 68.9947 14.167 68.824 14.935 68.824C15.7137 68.824 16.3857 68.9947 16.951 69.336C17.527 69.6667 17.9697 70.1413 18.279 70.76C18.599 71.3787 18.759 72.12 18.759 72.984C18.759 73.8373 18.599 74.5787 18.279 75.208C17.9697 75.8267 17.527 76.3067 16.951 76.648C16.3857 76.9787 15.7137 77.144 14.935 77.144ZM14.935 76.088C15.703 76.088 16.311 75.8267 16.759 75.304C17.207 74.7707 17.431 73.9973 17.431 72.984C17.431 71.96 17.2017 71.1867 16.743 70.664C16.295 70.1307 15.6923 69.864 14.935 69.864C14.1777 69.864 13.575 70.1307 13.127 70.664C12.679 71.1867 12.455 71.96 12.455 72.984C12.455 73.9973 12.679 74.7707 13.127 75.304C13.575 75.8267 14.1777 76.088 14.935 76.088ZM20.7796 77V70.824C20.7796 70.5253 20.7636 70.2213 20.7316 69.912C20.7103 69.592 20.6836 69.2773 20.6516 68.968H21.8996L22.0596 70.728H21.8676C22.1023 70.1093 22.4756 69.64 22.9876 69.32C23.5103 68.9893 24.113 68.824 24.7956 68.824C25.745 68.824 26.4596 69.08 26.9396 69.592C27.4303 70.0933 27.6756 70.888 27.6756 71.976V77H26.3796V72.056C26.3796 71.2987 26.225 70.7493 25.9156 70.408C25.617 70.056 25.1476 69.88 24.5076 69.88C23.761 69.88 23.169 70.1093 22.7316 70.568C22.2943 71.0267 22.0756 71.64 22.0756 72.408V77H20.7796ZM33.0026 77.144C32.2133 77.144 31.6106 76.92 31.1946 76.472C30.7786 76.0133 30.5706 75.3253 30.5706 74.408V69.976H29.0026V68.968H30.5706V66.776L31.8666 66.408V68.968H34.1706V69.976H31.8666V74.264C31.8666 74.904 31.9733 75.3627 32.1866 75.64C32.4106 75.9067 32.7413 76.04 33.1786 76.04C33.3813 76.04 33.5626 76.024 33.7226 75.992C33.8826 75.9493 34.0266 75.9013 34.1546 75.848V76.936C34.0053 77 33.824 77.048 33.6106 77.08C33.408 77.1227 33.2053 77.144 33.0026 77.144ZM38.8044 77.144C38.0897 77.144 37.4657 76.9787 36.9324 76.648C36.399 76.3067 35.983 75.8267 35.6844 75.208C35.3964 74.5893 35.2524 73.848 35.2524 72.984C35.2524 72.1093 35.3964 71.3627 35.6844 70.744C35.983 70.1253 36.399 69.6507 36.9324 69.32C37.4657 68.9893 38.0897 68.824 38.8044 68.824C39.5297 68.824 40.1537 69.0107 40.6764 69.384C41.2097 69.7467 41.5617 70.2427 41.7324 70.872H41.5404L41.7164 68.968H42.9644C42.9324 69.2773 42.9004 69.592 42.8684 69.912C42.847 70.2213 42.8364 70.5253 42.8364 70.824V77H41.5404V75.112H41.7164C41.5457 75.7413 41.1937 76.2373 40.6604 76.6C40.127 76.9627 39.5084 77.144 38.8044 77.144ZM39.0604 76.088C39.8284 76.088 40.4364 75.8267 40.8844 75.304C41.3324 74.7707 41.5564 73.9973 41.5564 72.984C41.5564 71.96 41.3324 71.1867 40.8844 70.664C40.4364 70.1307 39.8284 69.864 39.0604 69.864C38.303 69.864 37.695 70.1307 37.2364 70.664C36.7884 71.1867 36.5644 71.96 36.5644 72.984C36.5644 73.9973 36.7884 74.7707 37.2364 75.304C37.695 75.8267 38.303 76.088 39.0604 76.088ZM48.7181 77.144C47.9288 77.144 47.2408 76.9733 46.6541 76.632C46.0781 76.2907 45.6301 75.8053 45.3101 75.176C45.0008 74.5467 44.8461 73.8 44.8461 72.936C44.8461 72.0613 45.0061 71.32 45.3261 70.712C45.6461 70.0933 46.0941 69.624 46.6701 69.304C47.2568 68.984 47.9395 68.824 48.7181 68.824C49.2301 68.824 49.7261 68.9147 50.2061 69.096C50.6968 69.2773 51.1021 69.5333 51.4221 69.864L50.9581 70.792C50.6381 70.4827 50.2861 70.2533 49.9021 70.104C49.5288 69.9547 49.1608 69.88 48.7981 69.88C47.9661 69.88 47.3208 70.1413 46.8621 70.664C46.4035 71.1867 46.1741 71.9493 46.1741 72.952C46.1741 73.944 46.4035 74.712 46.8621 75.256C47.3208 75.8 47.9661 76.072 48.7981 76.072C49.1501 76.072 49.5128 76.0027 49.8861 75.864C50.2701 75.7253 50.6275 75.496 50.9581 75.176L51.4221 76.088C51.0915 76.4293 50.6808 76.6907 50.1901 76.872C49.6995 77.0533 49.2088 77.144 48.7181 77.144ZM56.112 77.144C55.3227 77.144 54.72 76.92 54.304 76.472C53.888 76.0133 53.68 75.3253 53.68 74.408V69.976H52.112V68.968H53.68V66.776L54.976 66.408V68.968H57.28V69.976H54.976V74.264C54.976 74.904 55.0827 75.3627 55.296 75.64C55.52 75.9067 55.8507 76.04 56.288 76.04C56.4907 76.04 56.672 76.024 56.832 75.992C56.992 75.9493 57.136 75.9013 57.264 75.848V76.936C57.1147 77 56.9333 77.048 56.72 77.08C56.5173 77.1227 56.3147 77.144 56.112 77.144Z" fill="white"/>
<path d="M1.408 136V124.72H6C7.184 124.72 8.096 125.008 8.736 125.584C9.376 126.149 9.696 126.939 9.696 127.952C9.696 128.944 9.376 129.733 8.736 130.32C8.096 130.896 7.184 131.184 6 131.184H2.736V136H1.408ZM2.736 130.08H5.872C6.69333 130.08 7.312 129.893 7.728 129.52C8.15467 129.147 8.368 128.624 8.368 127.952C8.368 127.269 8.15467 126.741 7.728 126.368C7.312 125.995 6.69333 125.808 5.872 125.808H2.736V130.08ZM11.4976 136V129.904C11.4976 129.584 11.487 129.259 11.4656 128.928C11.455 128.597 11.4336 128.277 11.4016 127.968H12.6496L12.8096 129.92L12.5856 129.936C12.6923 129.456 12.879 129.061 13.1456 128.752C13.4123 128.443 13.727 128.213 14.0896 128.064C14.4523 127.904 14.831 127.824 15.2256 127.824C15.3856 127.824 15.5243 127.829 15.6416 127.84C15.7696 127.851 15.887 127.877 15.9936 127.92L15.9776 129.072C15.8176 129.019 15.6683 128.987 15.5296 128.976C15.4016 128.955 15.2523 128.944 15.0816 128.944C14.6123 128.944 14.2016 129.056 13.8496 129.28C13.5083 129.504 13.247 129.792 13.0656 130.144C12.895 130.496 12.8096 130.869 12.8096 131.264V136H11.4976ZM17.3421 136V127.968H18.6381V136H17.3421ZM17.1821 126.144V124.688H18.7821V126.144H17.1821ZM23.5226 136L20.0826 127.968H21.4906L24.3706 135.04H23.9386L26.8506 127.968H28.1946L24.7546 136H23.5226ZM32.5544 136.144C31.8397 136.144 31.2157 135.979 30.6824 135.648C30.149 135.307 29.733 134.827 29.4344 134.208C29.1464 133.589 29.0024 132.848 29.0024 131.984C29.0024 131.109 29.1464 130.363 29.4344 129.744C29.733 129.125 30.149 128.651 30.6824 128.32C31.2157 127.989 31.8397 127.824 32.5544 127.824C33.2797 127.824 33.9037 128.011 34.4264 128.384C34.9597 128.747 35.3117 129.243 35.4824 129.872H35.2904L35.4664 127.968H36.7144C36.6824 128.277 36.6504 128.592 36.6184 128.912C36.597 129.221 36.5864 129.525 36.5864 129.824V136H35.2904V134.112H35.4664C35.2957 134.741 34.9437 135.237 34.4104 135.6C33.877 135.963 33.2584 136.144 32.5544 136.144ZM32.8104 135.088C33.5784 135.088 34.1864 134.827 34.6344 134.304C35.0824 133.771 35.3064 132.997 35.3064 131.984C35.3064 130.96 35.0824 130.187 34.6344 129.664C34.1864 129.131 33.5784 128.864 32.8104 128.864C32.053 128.864 31.445 129.131 30.9864 129.664C30.5384 130.187 30.3144 130.96 30.3144 131.984C30.3144 132.997 30.5384 133.771 30.9864 134.304C31.445 134.827 32.053 135.088 32.8104 135.088ZM42.4681 136.144C41.6788 136.144 40.9908 135.973 40.4041 135.632C39.8281 135.291 39.3801 134.805 39.0601 134.176C38.7508 133.547 38.5961 132.8 38.5961 131.936C38.5961 131.061 38.7561 130.32 39.0761 129.712C39.3961 129.093 39.8441 128.624 40.4201 128.304C41.0068 127.984 41.6895 127.824 42.4681 127.824C42.9801 127.824 43.4761 127.915 43.9561 128.096C44.4468 128.277 44.8521 128.533 45.1721 128.864L44.7081 129.792C44.3881 129.483 44.0361 129.253 43.6521 129.104C43.2788 128.955 42.9108 128.88 42.5481 128.88C41.7161 128.88 41.0708 129.141 40.6121 129.664C40.1535 130.187 39.9241 130.949 39.9241 131.952C39.9241 132.944 40.1535 133.712 40.6121 134.256C41.0708 134.8 41.7161 135.072 42.5481 135.072C42.9001 135.072 43.2628 135.003 43.6361 134.864C44.0201 134.725 44.3775 134.496 44.7081 134.176L45.1721 135.088C44.8415 135.429 44.4308 135.691 43.9401 135.872C43.4495 136.053 42.9588 136.144 42.4681 136.144ZM46.7565 139.632L46.4525 138.56C46.9538 138.443 47.3698 138.304 47.7005 138.144C48.0418 137.995 48.3245 137.792 48.5485 137.536C48.7725 137.28 48.9645 136.96 49.1245 136.576L49.5405 135.632L49.5085 136.176L46.0045 127.968H47.4125L50.3085 135.024H49.8925L52.7565 127.968H54.1165L50.4045 136.672C50.1912 137.184 49.9565 137.611 49.7005 137.952C49.4445 138.304 49.1672 138.587 48.8685 138.8C48.5805 139.024 48.2605 139.2 47.9085 139.328C47.5565 139.456 47.1725 139.557 46.7565 139.632ZM59.8924 136V124.72H64.4844C65.6684 124.72 66.5804 125.008 67.2204 125.584C67.8604 126.149 68.1804 126.939 68.1804 127.952C68.1804 128.944 67.8604 129.733 67.2204 130.32C66.5804 130.896 65.6684 131.184 64.4844 131.184H61.2204V136H59.8924ZM61.2204 130.08H64.3564C65.1777 130.08 65.7964 129.893 66.2124 129.52C66.639 129.147 66.8524 128.624 66.8524 127.952C66.8524 127.269 66.639 126.741 66.2124 126.368C65.7964 125.995 65.1777 125.808 64.3564 125.808H61.2204V130.08ZM73.1225 136.144C72.3545 136.144 71.6825 135.979 71.1065 135.648C70.5412 135.307 70.1038 134.827 69.7945 134.208C69.4852 133.579 69.3305 132.837 69.3305 131.984C69.3305 131.12 69.4852 130.379 69.7945 129.76C70.1038 129.141 70.5412 128.667 71.1065 128.336C71.6825 127.995 72.3545 127.824 73.1225 127.824C73.9012 127.824 74.5732 127.995 75.1385 128.336C75.7145 128.667 76.1572 129.141 76.4665 129.76C76.7865 130.379 76.9465 131.12 76.9465 131.984C76.9465 132.837 76.7865 133.579 76.4665 134.208C76.1572 134.827 75.7145 135.307 75.1385 135.648C74.5732 135.979 73.9012 136.144 73.1225 136.144ZM73.1225 135.088C73.8905 135.088 74.4985 134.827 74.9465 134.304C75.3945 133.771 75.6185 132.997 75.6185 131.984C75.6185 130.96 75.3892 130.187 74.9305 129.664C74.4825 129.131 73.8798 128.864 73.1225 128.864C72.3652 128.864 71.7625 129.131 71.3145 129.664C70.8665 130.187 70.6425 130.96 70.6425 131.984C70.6425 132.997 70.8665 133.771 71.3145 134.304C71.7625 134.827 72.3652 135.088 73.1225 135.088ZM78.9671 136V124.224H80.2631V136H78.9671ZM82.7796 136V127.968H84.0756V136H82.7796ZM82.6196 126.144V124.688H84.2196V126.144H82.6196ZM89.9681 136.144C89.1788 136.144 88.4908 135.973 87.9041 135.632C87.3281 135.291 86.8801 134.805 86.5601 134.176C86.2508 133.547 86.0961 132.8 86.0961 131.936C86.0961 131.061 86.2561 130.32 86.5761 129.712C86.8961 129.093 87.3441 128.624 87.9201 128.304C88.5068 127.984 89.1895 127.824 89.9681 127.824C90.4801 127.824 90.9761 127.915 91.4561 128.096C91.9468 128.277 92.3521 128.533 92.6721 128.864L92.2081 129.792C91.8881 129.483 91.5361 129.253 91.1521 129.104C90.7788 128.955 90.4108 128.88 90.0481 128.88C89.2161 128.88 88.5708 129.141 88.1121 129.664C87.6535 130.187 87.4241 130.949 87.4241 131.952C87.4241 132.944 87.6535 133.712 88.1121 134.256C88.5708 134.8 89.2161 135.072 90.0481 135.072C90.4001 135.072 90.7628 135.003 91.1361 134.864C91.5201 134.725 91.8775 134.496 92.2081 134.176L92.6721 135.088C92.3415 135.429 91.9308 135.691 91.4401 135.872C90.9495 136.053 90.4588 136.144 89.9681 136.144ZM94.2565 139.632L93.9525 138.56C94.4538 138.443 94.8698 138.304 95.2005 138.144C95.5418 137.995 95.8245 137.792 96.0485 137.536C96.2725 137.28 96.4645 136.96 96.6245 136.576L97.0405 135.632L97.0085 136.176L93.5045 127.968H94.9125L97.8085 135.024H97.3925L100.257 127.968H101.617L97.9045 136.672C97.6912 137.184 97.4565 137.611 97.2005 137.952C96.9445 138.304 96.6672 138.587 96.3685 138.8C96.0805 139.024 95.7605 139.2 95.4085 139.328C95.0565 139.456 94.6725 139.557 94.2565 139.632Z" fill="white"/>
</svg>
