<svg width="192" height="81" viewBox="0 0 192 81" fill="none" xmlns="http://www.w3.org/2000/svg">
<path d="M12.2423 73.6144C13.9771 73.6253 15.6968 73.2917 17.3016 72.6328C18.9065 71.974 20.3645 71.003 21.5912 69.7763C22.8179 68.5496 23.7889 67.0915 24.4477 65.4867C25.1066 63.8818 25.4402 62.1622 25.4293 60.4274V59.8214C26.3286 59.1626 27.1069 58.3529 27.7299 57.4284C26.8831 57.7988 25.9871 58.0444 25.0699 58.1576C26.0424 57.5782 26.772 56.666 27.1239 55.5901C26.2176 56.1338 25.2237 56.5161 24.1866 56.7198C23.4882 55.9756 22.5639 55.4823 21.5569 55.3162C20.5498 55.1502 19.5161 55.3207 18.6157 55.8013C17.7153 56.2819 16.9984 57.0458 16.5759 57.9749C16.1534 58.904 16.0489 59.9464 16.2785 60.9409C14.436 60.8504 12.6333 60.3729 10.9876 59.5395C9.34196 58.7061 7.89029 57.5353 6.72715 56.1036C6.14063 57.1215 5.96286 58.3243 6.22982 59.4684C6.49678 60.6126 7.18852 61.6125 8.16498 62.2657C7.44464 62.238 6.74096 62.0409 6.11093 61.6906V61.742C6.10453 62.8058 6.46291 63.8397 7.12636 64.6713C7.7898 65.5029 8.71822 66.0821 9.75688 66.3122C9.08688 66.4924 8.38507 66.5205 7.70282 66.3944C8.00352 67.3016 8.57752 68.0937 9.34611 68.6618C10.1147 69.23 11.0402 69.5465 11.9958 69.5679C10.362 70.883 8.33146 71.6069 6.23417 71.622C5.86645 71.6113 5.49959 71.5805 5.13525 71.5295C7.25807 72.882 9.72525 73.5951 12.2423 73.5836" fill="white"/>
<path fill-rule="evenodd" clip-rule="evenodd" d="M122.17 75.0995V64.9125H118.774V60.6678H122.17V57.2718C122.17 53.7627 124.391 52.0364 127.521 52.0364C129.02 52.0364 130.309 52.1483 130.685 52.1979V55.8649H128.514C126.812 55.8649 126.415 56.6756 126.415 57.8622V60.6678H130.659L129.81 64.9114H126.415L126.483 75.0995" fill="white"/>
<path fill-rule="evenodd" clip-rule="evenodd" d="M71.784 53.622C68.8477 53.622 68.4802 53.635 67.3267 53.6869C66.1764 53.7398 65.3904 53.9225 64.7029 54.1896C63.9812 54.4608 63.3275 54.8862 62.7872 55.4361C62.2373 55.9764 61.8119 56.6301 61.5407 57.3517C61.2737 58.0393 61.091 58.8253 61.038 59.9755C60.985 61.129 60.9731 61.4966 60.9731 64.4328C60.9731 67.369 60.985 67.7366 61.038 68.8901C61.091 70.0404 61.2737 70.8263 61.5407 71.5139C61.812 72.2355 62.2373 72.8893 62.7872 73.4296C63.3275 73.9794 63.9813 74.4048 64.7029 74.6761C65.3904 74.9431 66.1764 75.1258 67.3267 75.1788C68.4802 75.2307 68.8477 75.2436 71.784 75.2436C74.7202 75.2436 75.0877 75.2307 76.2413 75.1788C77.3915 75.1258 78.1775 74.9431 78.865 74.6761C79.5867 74.4049 80.2404 73.9795 80.7807 73.4296C81.3306 72.8893 81.756 72.2355 82.0272 71.5139C82.2942 70.8263 82.4769 70.0404 82.5299 68.8901C82.5818 67.7366 82.5948 67.369 82.5948 64.4328C82.5948 61.4966 82.5818 61.129 82.5299 59.9755C82.4769 58.8253 82.2942 58.0393 82.0272 57.3517C81.756 56.6301 81.3306 55.9764 80.7807 55.4361C80.2404 54.8862 79.5867 54.4608 78.865 54.1896C78.1775 53.9225 77.3915 53.7398 76.2413 53.6869C75.0877 53.635 74.7202 53.622 71.784 53.622ZM71.784 55.5701C74.6704 55.5701 75.0121 55.5809 76.1515 55.6328C77.2067 55.6815 77.7786 55.8566 78.1602 56.0047C78.664 56.2015 79.025 56.4361 79.4034 56.8134C79.7818 57.1917 80.0153 57.5528 80.2121 58.0566C80.3591 58.4382 80.5364 59.0101 80.584 60.0642C80.6358 61.2047 80.6467 61.5453 80.6467 64.4328C80.6467 67.3193 80.6358 67.6609 80.584 68.8004C80.5353 69.8555 80.3591 70.4274 80.2121 70.809C80.0387 71.2786 79.7624 71.7035 79.4034 72.0523C79.025 72.4307 78.664 72.6642 78.1602 72.8609C77.7786 73.008 77.2067 73.1853 76.1526 73.2328C75.0131 73.2847 74.6715 73.2955 71.784 73.2955C68.8975 73.2955 68.5548 73.2847 67.4164 73.2328C66.3613 73.1842 65.7894 73.008 65.4077 72.8609C64.9381 72.6877 64.5133 72.4114 64.1645 72.0523C63.8054 71.7035 63.5291 71.2787 63.3558 70.809C63.2077 70.4274 63.0315 69.8555 62.984 68.8015C62.9321 67.6609 62.9213 67.3204 62.9213 64.4328C62.9213 61.5463 62.9321 61.2047 62.984 60.0653C63.0326 59.0101 63.2077 58.4382 63.3558 58.0566C63.5526 57.5528 63.7872 57.1917 64.1645 56.8134C64.5429 56.435 64.904 56.2015 65.4077 56.0047C65.7894 55.8566 66.3613 55.6804 67.4153 55.6328C68.5558 55.5809 68.8964 55.5701 71.784 55.5701ZM71.784 68.0361C70.8283 68.0361 69.9118 67.6564 69.2361 66.9807C68.5603 66.305 68.1807 65.3885 68.1807 64.4328C68.1807 63.4772 68.5603 62.5607 69.2361 61.8849C69.9118 61.2092 70.8283 60.8296 71.784 60.8296C72.7396 60.8296 73.6561 61.2092 74.3318 61.8849C75.0076 62.5607 75.3872 63.4772 75.3872 64.4328C75.3872 65.3885 75.0076 66.305 74.3318 66.9807C73.6561 67.6564 72.7396 68.0361 71.784 68.0361ZM71.784 58.8815C71.0549 58.8815 70.3331 59.0251 69.6595 59.304C68.986 59.583 68.374 59.9919 67.8586 60.5074C67.3431 61.0229 66.9342 61.6349 66.6552 62.3084C66.3762 62.9819 66.2326 63.7038 66.2326 64.4328C66.2326 65.1618 66.3762 65.8837 66.6552 66.5572C66.9342 67.2308 67.3431 67.8427 67.8586 68.3582C68.374 68.8737 68.986 69.2826 69.6595 69.5616C70.3331 69.8406 71.0549 69.9842 71.784 69.9842C73.2563 69.9842 74.6683 69.3993 75.7094 68.3582C76.7504 67.3171 77.3353 65.9051 77.3353 64.4328C77.3353 62.9605 76.7504 61.5485 75.7094 60.5074C74.6683 59.4663 73.2563 58.8815 71.784 58.8815ZM78.8521 58.662C78.8521 58.8324 78.8185 59.0011 78.7533 59.1585C78.6881 59.3159 78.5926 59.4589 78.4721 59.5793C78.3516 59.6998 78.2086 59.7954 78.0512 59.8606C77.8938 59.9258 77.7251 59.9593 77.5548 59.9593C77.3844 59.9593 77.2157 59.9258 77.0583 59.8606C76.9009 59.7954 76.7579 59.6998 76.6374 59.5793C76.517 59.4589 76.4214 59.3159 76.3562 59.1585C76.291 59.0011 76.2575 58.8324 76.2575 58.662C76.2575 58.3179 76.3941 57.988 76.6374 57.7447C76.8807 57.5014 77.2107 57.3647 77.5548 57.3647C77.8988 57.3647 78.2288 57.5014 78.4721 57.7447C78.7154 57.988 78.8521 58.3179 78.8521 58.662Z" fill="white"/>
<path d="M186.65 53.6049H169.67C168.858 53.6049 168.199 54.2483 168.199 55.0407V72.0936C168.199 72.8871 168.858 73.5313 169.67 73.5313H186.65C187.462 73.5313 188.126 72.8871 188.126 72.0936V55.0407C188.126 54.2483 187.462 53.6049 186.65 53.6049ZM174.109 70.585H171.152V61.0759H174.109V70.585ZM172.631 59.7757C172.406 59.7757 172.183 59.7314 171.975 59.6452C171.767 59.559 171.578 59.4327 171.419 59.2736C171.26 59.1144 171.134 58.9254 171.048 58.7174C170.962 58.5094 170.917 58.2865 170.918 58.0615C170.918 57.6072 171.098 57.1715 171.419 56.8502C171.74 56.529 172.176 56.3485 172.631 56.3485C173.085 56.3485 173.521 56.529 173.842 56.8502C174.163 57.1715 174.343 57.6072 174.343 58.0615C174.343 58.5159 174.163 58.9517 173.842 59.2731C173.521 59.5946 173.085 59.7753 172.631 59.7757ZM185.178 70.585H182.226V65.9609C182.226 64.8578 182.204 63.4394 180.69 63.4394C179.152 63.4394 178.917 64.6408 178.917 65.881V70.5853H175.963V61.0759H178.798V62.3744H178.839C179.233 61.6272 180.197 60.8387 181.635 60.8387C184.626 60.8387 185.179 62.8076 185.179 65.369V70.585H185.178Z" fill="white"/>
<path d="M9.272 18.128C8.19467 18.128 7.256 17.8933 6.456 17.424C5.66667 16.9547 5.05867 16.2827 4.632 15.408C4.20533 14.5227 3.992 13.4827 3.992 12.288C3.992 11.0933 4.20533 10.064 4.632 9.2C5.05867 8.32533 5.66667 7.65333 6.456 7.184C7.256 6.71467 8.19467 6.48 9.272 6.48C10.0613 6.48 10.7813 6.60267 11.432 6.848C12.0933 7.08267 12.664 7.44 13.144 7.92L12.648 8.928C12.104 8.45867 11.5653 8.12267 11.032 7.92C10.5093 7.71733 9.928 7.616 9.288 7.616C8.04 7.616 7.06933 8.02133 6.376 8.832C5.69333 9.64267 5.352 10.7947 5.352 12.288C5.352 13.792 5.69333 14.9547 6.376 15.776C7.05867 16.5867 8.02933 16.992 9.288 16.992C9.928 16.992 10.5093 16.8907 11.032 16.688C11.5653 16.4853 12.104 16.1493 12.648 15.68L13.144 16.688C12.664 17.168 12.0933 17.5307 11.432 17.776C10.7813 18.0107 10.0613 18.128 9.272 18.128ZM18.3573 18.112C17.5999 18.112 16.9333 17.9413 16.3573 17.6C15.7813 17.2587 15.3333 16.7733 15.0133 16.144C14.7039 15.5147 14.5493 14.7787 14.5493 13.936C14.5493 13.0933 14.7039 12.3573 15.0133 11.728C15.3333 11.0987 15.7813 10.6133 16.3573 10.272C16.9333 9.93067 17.5999 9.76 18.3573 9.76C19.1146 9.76 19.7813 9.93067 20.3573 10.272C20.9333 10.6133 21.3759 11.0987 21.6853 11.728C22.0053 12.3573 22.1653 13.0933 22.1653 13.936C22.1653 14.7787 22.0053 15.5147 21.6853 16.144C21.3759 16.7733 20.9333 17.2587 20.3573 17.6C19.7813 17.9413 19.1146 18.112 18.3573 18.112ZM18.3573 17.04C19.1573 17.04 19.7706 16.7787 20.1973 16.256C20.6239 15.7227 20.8373 14.9493 20.8373 13.936C20.8373 12.9547 20.6186 12.1973 20.1813 11.664C19.7439 11.12 19.1359 10.848 18.3573 10.848C17.5679 10.848 16.9546 11.12 16.5173 11.664C16.0799 12.1973 15.8613 12.9547 15.8613 13.936C15.8613 14.9493 16.0746 15.7227 16.5013 16.256C16.9386 16.7787 17.5573 17.04 18.3573 17.04ZM28.2015 9.76C30.1322 9.76 31.0975 10.8213 31.0975 12.944V18H29.8015V13.008C29.8015 12.2613 29.6522 11.7173 29.3535 11.376C29.0548 11.024 28.5855 10.848 27.9455 10.848C27.1988 10.848 26.6015 11.0773 26.1535 11.536C25.7055 11.9947 25.4815 12.6133 25.4815 13.392V18H24.1855V12.208C24.1855 11.376 24.1428 10.624 24.0575 9.952H25.2895L25.4175 11.392C25.6628 10.8693 26.0308 10.4693 26.5215 10.192C27.0122 9.904 27.5722 9.76 28.2015 9.76ZM37.5609 9.76C39.4915 9.76 40.4569 10.8213 40.4569 12.944V18H39.1609V13.008C39.1609 12.2613 39.0115 11.7173 38.7129 11.376C38.4142 11.024 37.9449 10.848 37.3049 10.848C36.5582 10.848 35.9609 11.0773 35.5129 11.536C35.0649 11.9947 34.8409 12.6133 34.8409 13.392V18H33.5449V12.208C33.5449 11.376 33.5022 10.624 33.4169 9.952H34.6489L34.7769 11.392C35.0222 10.8693 35.3902 10.4693 35.8809 10.192C36.3715 9.904 36.9315 9.76 37.5609 9.76ZM49.6403 13.936H43.7363C43.7469 14.96 43.9816 15.7333 44.4403 16.256C44.9096 16.7787 45.5869 17.04 46.4723 17.04C47.4109 17.04 48.2749 16.7253 49.0643 16.096L49.4963 17.04C49.1443 17.3707 48.6909 17.632 48.1363 17.824C47.5923 18.016 47.0323 18.112 46.4563 18.112C45.1976 18.112 44.2109 17.744 43.4963 17.008C42.7816 16.2613 42.4243 15.2427 42.4243 13.952C42.4243 13.1307 42.5843 12.4053 42.9043 11.776C43.2243 11.136 43.6723 10.64 44.2483 10.288C44.8243 9.936 45.4803 9.76 46.2163 9.76C47.2829 9.76 48.1203 10.112 48.7283 10.816C49.3363 11.5093 49.6403 12.4693 49.6403 13.696V13.936ZM46.2323 10.768C45.5603 10.768 45.0109 10.9707 44.5843 11.376C44.1683 11.7813 43.9016 12.352 43.7843 13.088H48.4723C48.4083 12.3307 48.1843 11.7547 47.8003 11.36C47.4269 10.9653 46.9043 10.768 46.2323 10.768ZM54.9834 18.112C54.2047 18.112 53.522 17.9413 52.9354 17.6C52.3594 17.2587 51.9114 16.7787 51.5914 16.16C51.282 15.5307 51.1274 14.8 51.1274 13.968C51.1274 13.136 51.2874 12.4053 51.6074 11.776C51.9274 11.136 52.3807 10.64 52.9674 10.288C53.5647 9.936 54.258 9.76 55.0474 9.76C55.5914 9.76 56.114 9.856 56.6154 10.048C57.1274 10.2293 57.5487 10.4853 57.8794 10.816L57.4474 11.776C57.042 11.456 56.6474 11.2213 56.2634 11.072C55.89 10.9227 55.506 10.848 55.1114 10.848C54.29 10.848 53.6447 11.1253 53.1754 11.68C52.706 12.224 52.4714 12.9867 52.4714 13.968C52.4714 14.9387 52.7007 15.696 53.1594 16.24C53.6287 16.7733 54.2794 17.04 55.1114 17.04C55.506 17.04 55.89 16.9653 56.2634 16.816C56.6474 16.6667 57.042 16.432 57.4474 16.112L57.8794 17.072C57.538 17.392 57.106 17.648 56.5834 17.84C56.0714 18.0213 55.538 18.112 54.9834 18.112ZM61.2729 10.976V15.376C61.2729 15.9733 61.3955 16.3947 61.6409 16.64C61.8862 16.8747 62.2329 16.992 62.6809 16.992C62.9795 16.992 63.2675 16.944 63.5449 16.848V17.952C63.2142 18.0587 62.8409 18.112 62.4249 18.112C61.6569 18.112 61.0542 17.8987 60.6169 17.472C60.1902 17.0347 59.9769 16.3947 59.9769 15.552V10.976H58.4089V9.952H59.9769V7.888L61.2729 7.424V9.952H63.5769V10.976H61.2729ZM85.3105 6.608L81.3265 18H80.2065L76.9585 8.672L73.6945 18H72.5905L68.5905 6.608H69.9345L73.1665 16.128L76.4785 6.608L77.4865 6.624L80.7505 16.16L84.0145 6.608H85.3105ZM87.1074 9.952H88.4034V18H87.1074V9.952ZM88.5634 6.544V8.016H86.9794V6.544H88.5634ZM92.6479 10.976V15.376C92.6479 15.9733 92.7705 16.3947 93.0159 16.64C93.2612 16.8747 93.6079 16.992 94.0559 16.992C94.3545 16.992 94.6425 16.944 94.9199 16.848V17.952C94.5892 18.0587 94.2159 18.112 93.7999 18.112C93.0319 18.112 92.4292 17.8987 91.9919 17.472C91.5652 17.0347 91.3519 16.3947 91.3519 15.552V10.976H89.7839V9.952H91.3519V7.888L92.6479 7.424V9.952H94.9519V10.976H92.6479ZM100.53 9.76C102.46 9.76 103.426 10.8213 103.426 12.944V18H102.13V13.008C102.13 12.2613 101.98 11.7173 101.682 11.376C101.383 11.024 100.914 10.848 100.274 10.848C99.527 10.848 98.9296 11.0773 98.4816 11.536C98.0336 11.9947 97.8096 12.6133 97.8096 13.392V18H96.5136V6.224H97.8096V11.264C98.0656 10.7733 98.4283 10.4 98.8976 10.144C99.3776 9.888 99.9216 9.76 100.53 9.76ZM114.653 18.128C113.16 18.128 112.029 17.744 111.261 16.976C110.504 16.1973 110.125 15.0507 110.125 13.536V6.608H111.421V13.648C111.421 14.7573 111.693 15.5947 112.237 16.16C112.781 16.7253 113.586 17.008 114.653 17.008C115.709 17.008 116.504 16.7253 117.037 16.16C117.581 15.5947 117.853 14.7573 117.853 13.648V6.608H119.165V13.536C119.165 15.04 118.781 16.1813 118.013 16.96C117.245 17.7387 116.125 18.128 114.653 18.128ZM124.468 18.112C123.113 18.112 122.041 17.7653 121.252 17.072L121.684 16.112C122.121 16.4533 122.564 16.6987 123.012 16.848C123.46 16.9973 123.961 17.072 124.516 17.072C125.124 17.072 125.583 16.9707 125.892 16.768C126.212 16.5547 126.372 16.2507 126.372 15.856C126.372 15.536 126.265 15.28 126.052 15.088C125.839 14.896 125.487 14.7467 124.996 14.64L123.636 14.32C122.964 14.1707 122.441 13.904 122.068 13.52C121.705 13.136 121.524 12.6773 121.524 12.144C121.524 11.44 121.807 10.8693 122.372 10.432C122.937 9.984 123.684 9.76 124.612 9.76C125.177 9.76 125.711 9.85067 126.212 10.032C126.713 10.2133 127.135 10.4747 127.476 10.816L127.044 11.76C126.287 11.1307 125.476 10.816 124.612 10.816C124.036 10.816 123.588 10.928 123.268 11.152C122.959 11.3653 122.804 11.6693 122.804 12.064C122.804 12.3947 122.9 12.656 123.092 12.848C123.295 13.04 123.615 13.1893 124.052 13.296L125.412 13.632C126.159 13.8027 126.713 14.0693 127.076 14.432C127.439 14.784 127.62 15.248 127.62 15.824C127.62 16.5173 127.337 17.072 126.772 17.488C126.207 17.904 125.439 18.112 124.468 18.112Z" fill="white"/>
</svg>
