<svg width="65" height="65" viewBox="0 0 65 65" fill="none" xmlns="http://www.w3.org/2000/svg">
<path d="M32.5001 37.9166C36.9959 37.9166 40.598 34.2875 40.598 29.7916L40.6251 13.5416C40.6251 9.04579 36.9959 5.41663 32.5001 5.41663C28.0043 5.41663 24.3751 9.04579 24.3751 13.5416V29.7916C24.3751 34.2875 28.0043 37.9166 32.5001 37.9166ZM46.8543 29.7916C46.8543 37.9166 39.9751 43.6041 32.5001 43.6041C25.0251 43.6041 18.1459 37.9166 18.1459 29.7916H13.5417C13.5417 39.027 20.9084 46.6645 29.7917 47.9916V56.875H35.2084V47.9916C44.0918 46.6916 51.4584 39.0541 51.4584 29.7916H46.8543Z" fill="#029837"/>
</svg>
