<svg width="65" height="65" viewBox="0 0 65 65" fill="none" xmlns="http://www.w3.org/2000/svg">
<path d="M35.2083 8.125C21.7478 8.125 10.8333 19.0396 10.8333 32.5H2.70825L13.2437 43.0354L13.4333 43.4146L24.3749 32.5H16.2499C16.2499 22.0188 24.727 13.5417 35.2083 13.5417C45.6895 13.5417 54.1666 22.0188 54.1666 32.5C54.1666 42.9812 45.6895 51.4583 35.2083 51.4583C29.9812 51.4583 25.2416 49.3187 21.8291 45.8792L17.9833 49.725C22.3978 54.1396 28.4645 56.875 35.2083 56.875C48.6687 56.875 59.5833 45.9604 59.5833 32.5C59.5833 19.0396 48.6687 8.125 35.2083 8.125ZM32.4999 21.6667V35.2083L44.0916 42.0875L46.0416 38.8104L36.5624 33.1771V21.6667H32.4999Z" fill="#029837"/>
</svg>
