<svg width="23" height="23" viewBox="0 0 23 23" fill="none" xmlns="http://www.w3.org/2000/svg">
<path fill-rule="evenodd" clip-rule="evenodd" d="M11.784 0.622009C8.84774 0.622009 8.48017 0.634982 7.32666 0.686874C6.17639 0.739847 5.39044 0.92255 4.70287 1.18958C3.98124 1.46076 3.32747 1.88615 2.7872 2.43606C2.23731 2.97636 1.81193 3.63012 1.54071 4.35174C1.27369 5.03931 1.09098 5.82525 1.03801 6.97552C0.985036 8.12904 0.973145 8.4966 0.973145 11.4328C0.973145 14.369 0.985036 14.7366 1.03801 15.8901C1.09098 17.0404 1.27369 17.8263 1.54071 18.5139C1.81196 19.2355 2.23734 19.8893 2.7872 20.4296C3.32752 20.9794 3.98127 21.4048 4.70287 21.6761C5.39044 21.9431 6.17639 22.1258 7.32666 22.1788C8.48017 22.2307 8.84774 22.2436 11.784 22.2436C14.7202 22.2436 15.0877 22.2307 16.2413 22.1788C17.3915 22.1258 18.1775 21.9431 18.865 21.6761C19.5867 21.4049 20.2404 20.9795 20.7807 20.4296C21.3306 19.8893 21.756 19.2355 22.0272 18.5139C22.2942 17.8263 22.4769 17.0404 22.5299 15.8901C22.5818 14.7366 22.5948 14.369 22.5948 11.4328C22.5948 8.4966 22.5818 8.12904 22.5299 6.97552C22.4769 5.82525 22.2942 5.03931 22.0272 4.35174C21.756 3.63012 21.3306 2.97636 20.7807 2.43606C20.2404 1.88615 19.5867 1.46076 18.865 1.18958C18.1775 0.92255 17.3915 0.739847 16.2413 0.686874C15.0877 0.634982 14.7202 0.622009 11.784 0.622009ZM11.784 2.57012C14.6704 2.57012 15.0121 2.58093 16.1515 2.63282C17.2067 2.68147 17.7786 2.8566 18.1602 3.00471C18.664 3.20147 19.025 3.43606 19.4034 3.81336C19.7818 4.19174 20.0153 4.55282 20.2121 5.0566C20.3591 5.43823 20.5364 6.01012 20.584 7.06417C20.6358 8.20471 20.6467 8.54525 20.6467 11.4328C20.6467 14.3193 20.6358 14.6609 20.584 15.8004C20.5353 16.8555 20.3591 17.4274 20.2121 17.809C20.0387 18.2786 19.7624 18.7035 19.4034 19.0523C19.025 19.4307 18.664 19.6642 18.1602 19.8609C17.7786 20.008 17.2067 20.1853 16.1526 20.2328C15.0131 20.2847 14.6715 20.2955 11.784 20.2955C8.89747 20.2955 8.55477 20.2847 7.41639 20.2328C6.36125 20.1842 5.78936 20.008 5.40774 19.8609C4.9381 19.6877 4.51327 19.4114 4.1645 19.0523C3.80542 18.7035 3.5291 18.2787 3.35585 17.809C3.20774 17.4274 3.03152 16.8555 2.98396 15.8015C2.93206 14.6609 2.92125 14.3204 2.92125 11.4328C2.92125 8.54633 2.93206 8.20471 2.98396 7.06525C3.0326 6.01012 3.20774 5.43823 3.35585 5.0566C3.5526 4.55282 3.7872 4.19174 4.1645 3.81336C4.54287 3.43498 4.90396 3.20147 5.40774 3.00471C5.78936 2.8566 6.36125 2.68039 7.41531 2.63282C8.55585 2.58093 8.89639 2.57012 11.784 2.57012ZM11.784 15.0361C10.8283 15.0361 9.91182 14.6564 9.23608 13.9807C8.56034 13.305 8.18071 12.3885 8.18071 11.4328C8.18071 10.4772 8.56034 9.56068 9.23608 8.88494C9.91182 8.2092 10.8283 7.82958 11.784 7.82958C12.7396 7.82958 13.6561 8.2092 14.3318 8.88494C15.0076 9.56068 15.3872 10.4772 15.3872 11.4328C15.3872 12.3885 15.0076 13.305 14.3318 13.9807C13.6561 14.6564 12.7396 15.0361 11.784 15.0361V15.0361ZM11.784 5.88147C11.0549 5.88147 10.3331 6.02506 9.65955 6.30404C8.98602 6.58302 8.37405 6.99193 7.85856 7.50742C7.34307 8.02291 6.93416 8.63489 6.65518 9.30841C6.37619 9.98193 6.2326 10.7038 6.2326 11.4328C6.2326 12.1618 6.37619 12.8837 6.65518 13.5572C6.93416 14.2308 7.34307 14.8427 7.85856 15.3582C8.37405 15.8737 8.98602 16.2826 9.65955 16.5616C10.3331 16.8406 11.0549 16.9842 11.784 16.9842C13.2563 16.9842 14.6683 16.3993 15.7094 15.3582C16.7504 14.3171 17.3353 12.9051 17.3353 11.4328C17.3353 9.96051 16.7504 8.5485 15.7094 7.50742C14.6683 6.46634 13.2563 5.88147 11.784 5.88147V5.88147ZM18.8521 5.66201C18.8521 5.83237 18.8185 6.00107 18.7533 6.15846C18.6881 6.31586 18.5926 6.45887 18.4721 6.57934C18.3516 6.6998 18.2086 6.79536 18.0512 6.86056C17.8938 6.92575 17.7251 6.95931 17.5548 6.95931C17.3844 6.95931 17.2157 6.92575 17.0583 6.86056C16.9009 6.79536 16.7579 6.6998 16.6374 6.57934C16.517 6.45887 16.4214 6.31586 16.3562 6.15846C16.291 6.00107 16.2575 5.83237 16.2575 5.66201C16.2575 5.31795 16.3941 4.98797 16.6374 4.74468C16.8807 4.50139 17.2107 4.36471 17.5548 4.36471C17.8988 4.36471 18.2288 4.50139 18.4721 4.74468C18.7154 4.98797 18.8521 5.31795 18.8521 5.66201" fill="white"/>
</svg>
