<svg width="21" height="21" viewBox="0 0 21 21" fill="none" xmlns="http://www.w3.org/2000/svg">
<path d="M18.6498 0.604858H1.67018C0.858177 0.604858 0.199219 1.24832 0.199219 2.04067V19.0936C0.199219 19.8871 0.858177 20.5313 1.67018 20.5313H18.6498C19.4623 20.5313 20.1257 19.8871 20.1257 19.0936V2.04067C20.1257 1.24832 19.4623 0.604858 18.6498 0.604858ZM6.10908 17.585H3.15221V8.07591H6.10908V17.585ZM4.63065 6.7757C4.40558 6.7757 4.18273 6.73136 3.97481 6.64519C3.76689 6.55903 3.57799 6.43275 3.41889 6.27355C3.2598 6.11435 3.13364 5.92537 3.04761 5.7174C2.96158 5.50942 2.91738 5.28654 2.91752 5.06147C2.91752 4.60716 3.098 4.17146 3.41925 3.85021C3.74049 3.52896 4.1762 3.34849 4.63051 3.34849C5.08482 3.34849 5.52053 3.52896 5.84177 3.85021C6.16302 4.17146 6.3435 4.60716 6.3435 5.06147C6.3435 5.51587 6.16308 5.95169 5.8419 6.27313C5.52072 6.59457 5.08505 6.77534 4.63065 6.7757V6.7757ZM17.1782 17.585H14.2261V12.9609C14.2261 11.8578 14.2045 10.4394 12.6898 10.4394C11.1516 10.4394 10.9172 11.6408 10.9172 12.881V17.5853H7.9628V8.07591H10.7982V9.37445H10.8386C11.2332 8.62721 12.1975 7.83873 13.6355 7.83873C16.6261 7.83873 17.1785 9.80757 17.1785 12.369V17.585H17.1782Z" fill="white"/>
</svg>
