<svg width="23" height="19" viewBox="0 0 23 19" fill="none" xmlns="http://www.w3.org/2000/svg">
<path d="M7.24228 18.6144C8.97707 18.6253 10.6968 18.2917 12.3016 17.6328C13.9065 16.974 15.3645 16.003 16.5912 14.7763C17.8179 13.5496 18.7889 12.0915 19.4477 10.4867C20.1066 8.88184 20.4402 7.16215 20.4293 5.42736V4.82141C21.3286 4.16256 22.1069 3.35294 22.7299 2.42844C21.8831 2.79878 20.9871 3.0444 20.0699 3.15763C21.0424 2.57816 21.772 1.66604 22.1239 0.590061C21.2176 1.13381 20.2237 1.51606 19.1866 1.71979C18.4882 0.975573 17.5639 0.482281 16.5569 0.316241C15.5498 0.150202 14.5161 0.320672 13.6157 0.801273C12.7153 1.28188 11.9984 2.04582 11.5759 2.9749C11.1534 3.90398 11.0489 4.9464 11.2785 5.94087C9.43604 5.85044 7.63328 5.37295 5.98762 4.5395C4.34196 3.70605 2.89029 2.53533 1.72715 1.10357C1.14063 2.12154 0.96286 3.32434 1.22982 4.46845C1.49678 5.61255 2.18852 6.61247 3.16498 7.26574C2.44464 7.23795 1.74096 7.04092 1.11093 6.6906V6.74195C1.10453 7.80578 1.46291 8.83967 2.12636 9.67131C2.7898 10.5029 3.71822 11.0821 4.75688 11.3122C4.08688 11.4924 3.38507 11.5205 2.70282 11.3944C3.00352 12.3016 3.57752 13.0937 4.34611 13.6618C5.1147 14.23 6.04024 14.5465 6.9958 14.5679C5.36201 15.883 3.33146 16.6069 1.23417 16.622C0.866449 16.6113 0.499589 16.5805 0.135254 16.5295C2.25807 17.882 4.72525 18.5951 7.24228 18.5836" fill="white"/>
</svg>
