<svg width="393" height="15" viewBox="0 0 393 15" fill="none" xmlns="http://www.w3.org/2000/svg">
<path d="M5.712 11.112C5.00267 11.112 4.34 10.986 3.724 10.734C3.108 10.4727 2.57133 10.1133 2.114 9.656C1.65667 9.19867 1.29733 8.662 1.036 8.046C0.784 7.43 0.658 6.76733 0.658 6.058C0.658 5.33933 0.784 4.67667 1.036 4.07C1.29733 3.454 1.65667 2.922 2.114 2.474C2.57133 2.01667 3.10333 1.662 3.71 1.41C4.326 1.14867 4.99333 1.018 5.712 1.018C6.43067 1.018 7.09333 1.14867 7.7 1.41C8.316 1.662 8.848 2.01667 9.296 2.474C9.75333 2.922 10.108 3.454 10.36 4.07C10.6213 4.67667 10.752 5.33933 10.752 6.058C10.752 6.76733 10.6213 7.43 10.36 8.046C10.108 8.662 9.75333 9.19867 9.296 9.656C8.848 10.1133 8.316 10.4727 7.7 10.734C7.09333 10.986 6.43067 11.112 5.712 11.112ZM5.866 9.082C4.97933 9.082 4.27933 8.802 3.766 8.242C3.262 7.682 3.01 6.94 3.01 6.016C3.01 5.10133 3.262 4.378 3.766 3.846C4.27933 3.314 4.97933 3.048 5.866 3.048C6.23933 3.048 6.60333 3.118 6.958 3.258C7.322 3.398 7.62067 3.58467 7.854 3.818L7.56 4.406C7.29867 4.16333 7.02333 3.99067 6.734 3.888C6.44467 3.776 6.16 3.72 5.88 3.72C5.22667 3.72 4.71333 3.92533 4.34 4.336C3.976 4.73733 3.794 5.302 3.794 6.03C3.794 6.758 3.976 7.33667 4.34 7.766C4.71333 8.186 5.22667 8.396 5.88 8.396C6.16 8.396 6.44467 8.34467 6.734 8.242C7.02333 8.13 7.29867 7.95267 7.56 7.71L7.854 8.312C7.62067 8.54533 7.31733 8.732 6.944 8.872C6.58 9.012 6.22067 9.082 5.866 9.082ZM5.712 10.566C6.34667 10.566 6.93467 10.454 7.476 10.23C8.01733 9.99667 8.48867 9.67467 8.89 9.264C9.30067 8.85333 9.618 8.37733 9.842 7.836C10.066 7.28533 10.178 6.69267 10.178 6.058C10.178 5.42333 10.066 4.83533 9.842 4.294C9.618 3.74333 9.30067 3.26733 8.89 2.866C8.48867 2.45533 8.01733 2.138 7.476 1.914C6.93467 1.68067 6.34667 1.564 5.712 1.564C5.07733 1.564 4.48467 1.68067 3.934 1.914C3.39267 2.138 2.91667 2.45533 2.506 2.866C2.10467 3.26733 1.792 3.74333 1.568 4.294C1.344 4.83533 1.232 5.42333 1.232 6.058C1.232 6.69267 1.344 7.28533 1.568 7.836C1.792 8.37733 2.10467 8.85333 2.506 9.264C2.91667 9.67467 3.39267 9.99667 3.934 10.23C4.48467 10.454 5.07733 10.566 5.712 10.566ZM16.0344 13.604C15.8757 13.604 15.7077 13.5947 15.5304 13.576C15.3624 13.5667 15.1804 13.5387 14.9844 13.492V12.75C15.1617 12.7873 15.325 12.8153 15.4744 12.834C15.6237 12.8527 15.7637 12.862 15.8944 12.862C16.3237 12.862 16.6504 12.7267 16.8744 12.456C17.1077 12.1853 17.2244 11.756 17.2244 11.168V1.13H18.0924V11.182C18.0924 11.6953 18.013 12.134 17.8544 12.498C17.705 12.862 17.4764 13.1373 17.1684 13.324C16.8697 13.5107 16.4917 13.604 16.0344 13.604ZM23.3207 11.112C22.6581 11.112 22.0841 10.9673 21.5987 10.678C21.1227 10.3887 20.7541 9.97333 20.4927 9.432C20.2314 8.89067 20.1007 8.242 20.1007 7.486C20.1007 6.73933 20.2314 6.09533 20.4927 5.554C20.7541 5.01267 21.1227 4.59733 21.5987 4.308C22.0841 4.00933 22.6581 3.86 23.3207 3.86C23.9741 3.86 24.5387 4.00933 25.0147 4.308C25.5001 4.59733 25.8734 5.01267 26.1347 5.554C26.4054 6.09533 26.5407 6.73933 26.5407 7.486C26.5407 8.242 26.4054 8.89067 26.1347 9.432C25.8734 9.97333 25.5001 10.3887 25.0147 10.678C24.5387 10.9673 23.9741 11.112 23.3207 11.112ZM23.3207 10.384C24.0301 10.384 24.5994 10.1367 25.0287 9.642C25.4581 9.14733 25.6727 8.42867 25.6727 7.486C25.6727 6.54333 25.4581 5.82467 25.0287 5.33C24.5994 4.83533 24.0301 4.588 23.3207 4.588C22.6021 4.588 22.0281 4.83533 21.5987 5.33C21.1787 5.82467 20.9687 6.54333 20.9687 7.486C20.9687 8.42867 21.1787 9.14733 21.5987 9.642C22.0281 10.1367 22.6021 10.384 23.3207 10.384ZM28.4891 7.528V6.8H32.3531V7.528H28.4891ZM34.0676 13.604C33.9089 13.604 33.7409 13.5947 33.5636 13.576C33.3956 13.5667 33.2136 13.5387 33.0176 13.492V12.75C33.1949 12.7873 33.3582 12.8153 33.5076 12.834C33.6569 12.8527 33.7969 12.862 33.9276 12.862C34.3569 12.862 34.6836 12.7267 34.9076 12.456C35.1409 12.1853 35.2576 11.756 35.2576 11.168V1.13H36.1256V11.182C36.1256 11.6953 36.0462 12.134 35.8876 12.498C35.7382 12.862 35.5096 13.1373 35.2016 13.324C34.9029 13.5107 34.5249 13.604 34.0676 13.604ZM41.5919 11.112C40.5279 11.112 39.6833 10.7947 39.0579 10.16C38.4419 9.52533 38.1339 8.64333 38.1339 7.514C38.1339 6.76733 38.2693 6.12333 38.5399 5.582C38.8199 5.04067 39.2073 4.62067 39.7019 4.322C40.1966 4.014 40.7706 3.86 41.4239 3.86C42.0493 3.86 42.5766 3.99533 43.0059 4.266C43.4353 4.52733 43.7666 4.90533 43.9999 5.4C44.2333 5.88533 44.3499 6.464 44.3499 7.136V7.528H38.7499V6.912H43.8179L43.5799 7.094C43.5799 6.30067 43.3979 5.68 43.0339 5.232C42.6699 4.77467 42.1286 4.546 41.4099 4.546C40.6446 4.546 40.0473 4.812 39.6179 5.344C39.1886 5.86667 38.9739 6.562 38.9739 7.43V7.528C38.9739 8.46133 39.2026 9.17067 39.6599 9.656C40.1266 10.1413 40.7753 10.384 41.6059 10.384C42.0353 10.384 42.4366 10.3187 42.8099 10.188C43.1833 10.0573 43.5426 9.83333 43.8879 9.516L44.2379 10.146C43.9393 10.454 43.5519 10.692 43.0759 10.86C42.5999 11.028 42.1053 11.112 41.5919 11.112ZM48.8435 11.112C48.2088 11.112 47.6582 10.9673 47.1915 10.678C46.7248 10.3887 46.3655 9.97333 46.1135 9.432C45.8615 8.89067 45.7355 8.242 45.7355 7.486C45.7355 6.73 45.8615 6.086 46.1135 5.554C46.3748 5.01267 46.7388 4.59733 47.2055 4.308C47.6722 4.00933 48.2182 3.86 48.8435 3.86C49.4875 3.86 50.0428 4.028 50.5095 4.364C50.9855 4.7 51.2982 5.15733 51.4475 5.736H51.2795L51.4195 3.986H52.2455C52.2175 4.25667 52.1895 4.52267 52.1615 4.784C52.1428 5.04533 52.1335 5.302 52.1335 5.554V11H51.2795V9.25H51.4335C51.2842 9.82867 50.9715 10.286 50.4955 10.622C50.0288 10.9487 49.4782 11.112 48.8435 11.112ZM48.9555 10.384C49.6742 10.384 50.2435 10.1367 50.6635 9.642C51.0835 9.14733 51.2935 8.42867 51.2935 7.486C51.2935 6.54333 51.0835 5.82467 50.6635 5.33C50.2435 4.83533 49.6742 4.588 48.9555 4.588C48.2368 4.588 47.6628 4.83533 47.2335 5.33C46.8135 5.82467 46.6035 6.54333 46.6035 7.486C46.6035 8.42867 46.8135 9.14733 47.2335 9.642C47.6628 10.1367 48.2368 10.384 48.9555 10.384ZM54.455 11V5.554C54.455 5.302 54.4456 5.04533 54.427 4.784C54.4083 4.52267 54.3803 4.25667 54.343 3.986H55.183L55.309 5.596H55.141C55.3463 5.036 55.6776 4.60667 56.135 4.308C56.5923 4.00933 57.1243 3.86 57.731 3.86C58.5616 3.86 59.187 4.07933 59.607 4.518C60.0363 4.95667 60.251 5.64267 60.251 6.576V11H59.397V6.646C59.397 5.92733 59.2523 5.40933 58.963 5.092C58.6736 4.76533 58.2256 4.602 57.619 4.602C56.9096 4.602 56.345 4.81667 55.925 5.246C55.5143 5.67533 55.309 6.254 55.309 6.982V11H54.455ZM66.2571 11V1.13H67.1251V11H66.2571ZM69.5761 11V5.554C69.5761 5.302 69.5667 5.04533 69.5481 4.784C69.5294 4.52267 69.5014 4.25667 69.4641 3.986H70.3041L70.4301 5.596H70.2621C70.4394 5.04533 70.7334 4.62067 71.1441 4.322C71.5547 4.014 72.0541 3.86 72.6421 3.86C73.2394 3.86 73.7247 4.00467 74.0981 4.294C74.4714 4.58333 74.7187 5.03133 74.8401 5.638H74.6301C74.7981 5.09667 75.1061 4.66733 75.5541 4.35C76.0021 4.02333 76.5294 3.86 77.1361 3.86C77.9014 3.86 78.4801 4.07933 78.8721 4.518C79.2641 4.95667 79.4601 5.64267 79.4601 6.576V11H78.6061V6.632C78.6061 5.92267 78.4801 5.40933 78.2281 5.092C77.9761 4.76533 77.5654 4.602 76.9961 4.602C76.3614 4.602 75.8574 4.81667 75.4841 5.246C75.1201 5.67533 74.9381 6.254 74.9381 6.982V11H74.0841V6.632C74.0841 5.92267 73.9581 5.40933 73.7061 5.092C73.4541 4.76533 73.0481 4.602 72.4881 4.602C71.8534 4.602 71.3494 4.81667 70.9761 5.246C70.6121 5.67533 70.4301 6.254 70.4301 6.982V11H69.5761ZM84.516 11.112C83.8534 11.112 83.2794 10.9673 82.794 10.678C82.318 10.3887 81.9494 9.97333 81.688 9.432C81.4267 8.89067 81.296 8.242 81.296 7.486C81.296 6.73933 81.4267 6.09533 81.688 5.554C81.9494 5.01267 82.318 4.59733 82.794 4.308C83.2794 4.00933 83.8534 3.86 84.516 3.86C85.1694 3.86 85.734 4.00933 86.21 4.308C86.6954 4.59733 87.0687 5.01267 87.33 5.554C87.6007 6.09533 87.736 6.73933 87.736 7.486C87.736 8.242 87.6007 8.89067 87.33 9.432C87.0687 9.97333 86.6954 10.3887 86.21 10.678C85.734 10.9673 85.1694 11.112 84.516 11.112ZM84.516 10.384C85.2254 10.384 85.7947 10.1367 86.224 9.642C86.6534 9.14733 86.868 8.42867 86.868 7.486C86.868 6.54333 86.6534 5.82467 86.224 5.33C85.7947 4.83533 85.2254 4.588 84.516 4.588C83.7974 4.588 83.2234 4.83533 82.794 5.33C82.374 5.82467 82.164 6.54333 82.164 7.486C82.164 8.42867 82.374 9.14733 82.794 9.642C83.2234 10.1367 83.7974 10.384 84.516 10.384ZM89.6054 11V0.695999H90.4594V5.61H90.2914C90.4874 5.04067 90.8187 4.60667 91.2854 4.308C91.752 4.00933 92.2934 3.86 92.9094 3.86C93.7587 3.86 94.384 4.084 94.7854 4.532C95.196 4.98 95.4014 5.652 95.4014 6.548V11H94.5474V6.618C94.5474 5.90867 94.4074 5.39533 94.1274 5.078C93.8474 4.76067 93.3994 4.602 92.7834 4.602C92.0834 4.602 91.5187 4.81667 91.0894 5.246C90.6694 5.67533 90.4594 6.24467 90.4594 6.954V11H89.6054ZM97.5731 7.528V6.8H101.437V7.528H97.5731ZM103.773 11V1.13H104.641V11H103.773ZM109.36 11.112C108.734 11.112 108.254 10.9253 107.918 10.552C107.591 10.1787 107.428 9.60467 107.428 8.83V4.672H106.028V3.986H107.428V2.026L108.282 1.746V3.986H110.354V4.672H108.282V8.704C108.282 9.292 108.375 9.71667 108.562 9.978C108.748 10.2393 109.047 10.37 109.458 10.37C109.644 10.37 109.808 10.3513 109.948 10.314C110.097 10.2767 110.223 10.2347 110.326 10.188V10.944C110.214 10.9907 110.069 11.028 109.892 11.056C109.714 11.0933 109.537 11.112 109.36 11.112ZM114.468 11.112C113.834 11.112 113.283 10.9673 112.816 10.678C112.35 10.3887 111.99 9.97333 111.738 9.432C111.486 8.89067 111.36 8.242 111.36 7.486C111.36 6.73 111.486 6.086 111.738 5.554C112 5.01267 112.364 4.59733 112.83 4.308C113.297 4.00933 113.843 3.86 114.468 3.86C115.112 3.86 115.668 4.028 116.134 4.364C116.61 4.7 116.923 5.15733 117.072 5.736H116.904L117.044 3.986H117.87C117.842 4.25667 117.814 4.52267 117.786 4.784C117.768 5.04533 117.758 5.302 117.758 5.554V11H116.904V9.25H117.058C116.909 9.82867 116.596 10.286 116.12 10.622C115.654 10.9487 115.103 11.112 114.468 11.112ZM114.58 10.384C115.299 10.384 115.868 10.1367 116.288 9.642C116.708 9.14733 116.918 8.42867 116.918 7.486C116.918 6.54333 116.708 5.82467 116.288 5.33C115.868 4.83533 115.299 4.588 114.58 4.588C113.862 4.588 113.288 4.83533 112.858 5.33C112.438 5.82467 112.228 6.54333 112.228 7.486C112.228 8.42867 112.438 9.14733 112.858 9.642C113.288 10.1367 113.862 10.384 114.58 10.384ZM119.856 11V9.796H121.046V11H119.856ZM125.913 11L130.211 1.13H130.995L135.363 11H134.453L133.221 8.158L133.627 8.368H127.551L128.027 8.158L126.823 11H125.913ZM130.589 2.18L128.195 7.794L127.873 7.626H133.305L133.067 7.794L130.617 2.18H130.589ZM136.896 11V0.695999H137.75V11H136.896ZM140.082 11V0.695999H140.936V11H140.082ZM146.822 11V5.624C146.822 5.35333 146.812 5.08267 146.794 4.812C146.784 4.532 146.761 4.25667 146.724 3.986H147.564L147.676 5.596L147.508 5.61C147.601 5.218 147.769 4.896 148.012 4.644C148.254 4.38267 148.534 4.18667 148.852 4.056C149.169 3.92533 149.496 3.86 149.832 3.86C149.953 3.86 150.065 3.86933 150.168 3.888C150.28 3.89733 150.382 3.916 150.476 3.944L150.448 4.714C150.336 4.67667 150.224 4.65333 150.112 4.644C150 4.63467 149.878 4.63 149.748 4.63C149.328 4.63 148.959 4.73267 148.642 4.938C148.334 5.14333 148.096 5.40467 147.928 5.722C147.76 6.03933 147.676 6.36133 147.676 6.688V11H146.822ZM151.717 11V3.986H152.571V11H151.717ZM151.577 2.264V1.2H152.725V2.264H151.577ZM157.926 14.122C157.338 14.122 156.788 14.0427 156.274 13.884C155.77 13.7253 155.318 13.4873 154.916 13.17L155.224 12.512C155.523 12.7267 155.808 12.8947 156.078 13.016C156.358 13.1467 156.648 13.24 156.946 13.296C157.245 13.3613 157.567 13.394 157.912 13.394C158.622 13.394 159.158 13.2027 159.522 12.82C159.886 12.4467 160.068 11.9053 160.068 11.196V8.97H160.222C160.073 9.558 159.76 10.02 159.284 10.356C158.808 10.6827 158.248 10.846 157.604 10.846C156.96 10.846 156.4 10.706 155.924 10.426C155.458 10.1367 155.094 9.73067 154.832 9.208C154.58 8.676 154.454 8.05533 154.454 7.346C154.454 6.63667 154.58 6.02067 154.832 5.498C155.094 4.97533 155.458 4.574 155.924 4.294C156.4 4.00467 156.96 3.86 157.604 3.86C158.248 3.86 158.808 4.028 159.284 4.364C159.76 4.69067 160.073 5.15267 160.222 5.75L160.068 5.596L160.194 3.986H161.034C160.997 4.25667 160.969 4.52267 160.95 4.784C160.932 5.04533 160.922 5.302 160.922 5.554V11.07C160.922 12.078 160.666 12.8387 160.152 13.352C159.648 13.8653 158.906 14.122 157.926 14.122ZM157.702 10.118C158.43 10.118 159.004 9.87533 159.424 9.39C159.854 8.90467 160.068 8.22333 160.068 7.346C160.068 6.478 159.854 5.80133 159.424 5.316C159.004 4.83067 158.43 4.588 157.702 4.588C156.974 4.588 156.396 4.83067 155.966 5.316C155.537 5.80133 155.322 6.478 155.322 7.346C155.322 8.22333 155.537 8.90467 155.966 9.39C156.396 9.87533 156.974 10.118 157.702 10.118ZM163.228 11V0.695999H164.082V5.61H163.914C164.11 5.04067 164.442 4.60667 164.908 4.308C165.375 4.00933 165.916 3.86 166.532 3.86C167.382 3.86 168.007 4.084 168.408 4.532C168.819 4.98 169.024 5.652 169.024 6.548V11H168.17V6.618C168.17 5.90867 168.03 5.39533 167.75 5.078C167.47 4.76067 167.022 4.602 166.406 4.602C165.706 4.602 165.142 4.81667 164.712 5.246C164.292 5.67533 164.082 6.24467 164.082 6.954V11H163.228ZM173.59 11.112C172.965 11.112 172.484 10.9253 172.148 10.552C171.821 10.1787 171.658 9.60467 171.658 8.83V4.672H170.258V3.986H171.658V2.026L172.512 1.746V3.986H174.584V4.672H172.512V8.704C172.512 9.292 172.605 9.71667 172.792 9.978C172.979 10.2393 173.277 10.37 173.688 10.37C173.875 10.37 174.038 10.3513 174.178 10.314C174.327 10.2767 174.453 10.2347 174.556 10.188V10.944C174.444 10.9907 174.299 11.028 174.122 11.056C173.945 11.0933 173.767 11.112 173.59 11.112ZM179.593 11V5.624C179.593 5.35333 179.584 5.08267 179.565 4.812C179.556 4.532 179.533 4.25667 179.495 3.986H180.335L180.447 5.596L180.279 5.61C180.373 5.218 180.541 4.896 180.783 4.644C181.026 4.38267 181.306 4.18667 181.623 4.056C181.941 3.92533 182.267 3.86 182.603 3.86C182.725 3.86 182.837 3.86933 182.939 3.888C183.051 3.89733 183.154 3.916 183.247 3.944L183.219 4.714C183.107 4.67667 182.995 4.65333 182.883 4.644C182.771 4.63467 182.65 4.63 182.519 4.63C182.099 4.63 181.731 4.73267 181.413 4.938C181.105 5.14333 180.867 5.40467 180.699 5.722C180.531 6.03933 180.447 6.36133 180.447 6.688V11H179.593ZM187.416 11.112C186.352 11.112 185.507 10.7947 184.882 10.16C184.266 9.52533 183.958 8.64333 183.958 7.514C183.958 6.76733 184.093 6.12333 184.364 5.582C184.644 5.04067 185.031 4.62067 185.526 4.322C186.021 4.014 186.595 3.86 187.248 3.86C187.873 3.86 188.401 3.99533 188.83 4.266C189.259 4.52733 189.591 4.90533 189.824 5.4C190.057 5.88533 190.174 6.464 190.174 7.136V7.528H184.574V6.912H189.642L189.404 7.094C189.404 6.30067 189.222 5.68 188.858 5.232C188.494 4.77467 187.953 4.546 187.234 4.546C186.469 4.546 185.871 4.812 185.442 5.344C185.013 5.86667 184.798 6.562 184.798 7.43V7.528C184.798 8.46133 185.027 9.17067 185.484 9.656C185.951 10.1413 186.599 10.384 187.43 10.384C187.859 10.384 188.261 10.3187 188.634 10.188C189.007 10.0573 189.367 9.83333 189.712 9.516L190.062 10.146C189.763 10.454 189.376 10.692 188.9 10.86C188.424 11.028 187.929 11.112 187.416 11.112ZM194.276 11.112C193.734 11.112 193.226 11.0327 192.75 10.874C192.283 10.7153 191.896 10.496 191.588 10.216L191.924 9.586C192.269 9.866 192.642 10.076 193.044 10.216C193.445 10.3467 193.865 10.412 194.304 10.412C194.901 10.412 195.354 10.3 195.662 10.076C195.97 9.852 196.124 9.54867 196.124 9.166C196.124 8.86733 196.026 8.62467 195.83 8.438C195.634 8.25133 195.307 8.11133 194.85 8.018L193.59 7.752C192.992 7.612 192.544 7.388 192.246 7.08C191.956 6.772 191.812 6.38467 191.812 5.918C191.812 5.51667 191.914 5.162 192.12 4.854C192.334 4.546 192.638 4.30333 193.03 4.126C193.422 3.94867 193.884 3.86 194.416 3.86C194.92 3.86 195.382 3.944 195.802 4.112C196.231 4.27067 196.581 4.49933 196.852 4.798L196.488 5.414C196.208 5.134 195.89 4.924 195.536 4.784C195.19 4.644 194.822 4.574 194.43 4.574C193.851 4.574 193.412 4.69533 193.114 4.938C192.815 5.17133 192.666 5.484 192.666 5.876C192.666 6.17467 192.759 6.422 192.946 6.618C193.132 6.80467 193.426 6.94467 193.828 7.038L195.088 7.318C195.722 7.458 196.194 7.67267 196.502 7.962C196.81 8.25133 196.964 8.634 196.964 9.11C196.964 9.52067 196.852 9.88 196.628 10.188C196.404 10.4867 196.091 10.7153 195.69 10.874C195.288 11.0327 194.817 11.112 194.276 11.112ZM201.936 11.112C200.872 11.112 200.027 10.7947 199.402 10.16C198.786 9.52533 198.478 8.64333 198.478 7.514C198.478 6.76733 198.613 6.12333 198.884 5.582C199.164 5.04067 199.551 4.62067 200.046 4.322C200.54 4.014 201.114 3.86 201.768 3.86C202.393 3.86 202.92 3.99533 203.35 4.266C203.779 4.52733 204.11 4.90533 204.344 5.4C204.577 5.88533 204.694 6.464 204.694 7.136V7.528H199.094V6.912H204.162L203.924 7.094C203.924 6.30067 203.742 5.68 203.378 5.232C203.014 4.77467 202.472 4.546 201.754 4.546C200.988 4.546 200.391 4.812 199.962 5.344C199.532 5.86667 199.318 6.562 199.318 7.43V7.528C199.318 8.46133 199.546 9.17067 200.004 9.656C200.47 10.1413 201.119 10.384 201.95 10.384C202.379 10.384 202.78 10.3187 203.154 10.188C203.527 10.0573 203.886 9.83333 204.232 9.516L204.582 10.146C204.283 10.454 203.896 10.692 203.42 10.86C202.944 11.028 202.449 11.112 201.936 11.112ZM206.513 11V5.624C206.513 5.35333 206.504 5.08267 206.485 4.812C206.476 4.532 206.453 4.25667 206.415 3.986H207.255L207.367 5.596L207.199 5.61C207.293 5.218 207.461 4.896 207.703 4.644C207.946 4.38267 208.226 4.18667 208.543 4.056C208.861 3.92533 209.187 3.86 209.523 3.86C209.645 3.86 209.757 3.86933 209.859 3.888C209.971 3.89733 210.074 3.916 210.167 3.944L210.139 4.714C210.027 4.67667 209.915 4.65333 209.803 4.644C209.691 4.63467 209.57 4.63 209.439 4.63C209.019 4.63 208.651 4.73267 208.333 4.938C208.025 5.14333 207.787 5.40467 207.619 5.722C207.451 6.03933 207.367 6.36133 207.367 6.688V11H206.513ZM213.904 11L210.922 3.986H211.874L214.534 10.468H214.17L216.858 3.986H217.768L214.786 11H213.904ZM222.115 11.112C221.051 11.112 220.207 10.7947 219.581 10.16C218.965 9.52533 218.657 8.64333 218.657 7.514C218.657 6.76733 218.793 6.12333 219.063 5.582C219.343 5.04067 219.731 4.62067 220.225 4.322C220.72 4.014 221.294 3.86 221.947 3.86C222.573 3.86 223.1 3.99533 223.529 4.266C223.959 4.52733 224.29 4.90533 224.523 5.4C224.757 5.88533 224.873 6.464 224.873 7.136V7.528H219.273V6.912H224.341L224.103 7.094C224.103 6.30067 223.921 5.68 223.557 5.232C223.193 4.77467 222.652 4.546 221.933 4.546C221.168 4.546 220.571 4.812 220.141 5.344C219.712 5.86667 219.497 6.562 219.497 7.43V7.528C219.497 8.46133 219.726 9.17067 220.183 9.656C220.65 10.1413 221.299 10.384 222.129 10.384C222.559 10.384 222.96 10.3187 223.333 10.188C223.707 10.0573 224.066 9.83333 224.411 9.516L224.761 10.146C224.463 10.454 224.075 10.692 223.599 10.86C223.123 11.028 222.629 11.112 222.115 11.112ZM229.353 11.112C228.728 11.112 228.182 10.9673 227.715 10.678C227.248 10.3887 226.889 9.97333 226.637 9.432C226.385 8.89067 226.259 8.242 226.259 7.486C226.259 6.73 226.385 6.086 226.637 5.554C226.889 5.01267 227.248 4.59733 227.715 4.308C228.182 4.00933 228.728 3.86 229.353 3.86C229.997 3.86 230.552 4.028 231.019 4.364C231.495 4.69067 231.812 5.14333 231.971 5.722H231.803V0.695999H232.657V11H231.817V9.236H231.971C231.812 9.824 231.495 10.286 231.019 10.622C230.552 10.9487 229.997 11.112 229.353 11.112ZM229.465 10.384C230.174 10.384 230.744 10.1367 231.173 9.642C231.612 9.14733 231.831 8.42867 231.831 7.486C231.831 6.54333 231.612 5.82467 231.173 5.33C230.744 4.83533 230.174 4.588 229.465 4.588C228.756 4.588 228.186 4.83533 227.757 5.33C227.337 5.82467 227.127 6.54333 227.127 7.486C227.127 8.42867 227.337 9.14733 227.757 9.642C228.186 10.1367 228.756 10.384 229.465 10.384ZM234.754 11V9.796H235.944V11H234.754ZM241.749 11V1.13H244.871C245.954 1.13 246.869 1.32133 247.615 1.704C248.362 2.07733 248.927 2.63267 249.309 3.37C249.701 4.098 249.897 4.994 249.897 6.058C249.897 7.122 249.701 8.02267 249.309 8.76C248.927 9.49733 248.362 10.0573 247.615 10.44C246.869 10.8133 245.954 11 244.871 11H241.749ZM242.617 10.23H244.801C246.211 10.23 247.261 9.88467 247.951 9.194C248.642 8.494 248.987 7.44867 248.987 6.058C248.987 4.658 248.642 3.61267 247.951 2.922C247.261 2.23133 246.211 1.886 244.801 1.886H242.617V10.23ZM254.983 11.112C253.919 11.112 253.074 10.7947 252.449 10.16C251.833 9.52533 251.525 8.64333 251.525 7.514C251.525 6.76733 251.66 6.12333 251.931 5.582C252.211 5.04067 252.598 4.62067 253.093 4.322C253.587 4.014 254.161 3.86 254.815 3.86C255.44 3.86 255.967 3.99533 256.397 4.266C256.826 4.52733 257.157 4.90533 257.391 5.4C257.624 5.88533 257.741 6.464 257.741 7.136V7.528H252.141V6.912H257.209L256.971 7.094C256.971 6.30067 256.789 5.68 256.425 5.232C256.061 4.77467 255.519 4.546 254.801 4.546C254.035 4.546 253.438 4.812 253.009 5.344C252.579 5.86667 252.365 6.562 252.365 7.43V7.528C252.365 8.46133 252.593 9.17067 253.051 9.656C253.517 10.1413 254.166 10.384 254.997 10.384C255.426 10.384 255.827 10.3187 256.201 10.188C256.574 10.0573 256.933 9.83333 257.279 9.516L257.629 10.146C257.33 10.454 256.943 10.692 256.467 10.86C255.991 11.028 255.496 11.112 254.983 11.112ZM261.842 11.112C261.301 11.112 260.792 11.0327 260.316 10.874C259.849 10.7153 259.462 10.496 259.154 10.216L259.49 9.586C259.835 9.866 260.209 10.076 260.61 10.216C261.011 10.3467 261.431 10.412 261.87 10.412C262.467 10.412 262.92 10.3 263.228 10.076C263.536 9.852 263.69 9.54867 263.69 9.166C263.69 8.86733 263.592 8.62467 263.396 8.438C263.2 8.25133 262.873 8.11133 262.416 8.018L261.156 7.752C260.559 7.612 260.111 7.388 259.812 7.08C259.523 6.772 259.378 6.38467 259.378 5.918C259.378 5.51667 259.481 5.162 259.686 4.854C259.901 4.546 260.204 4.30333 260.596 4.126C260.988 3.94867 261.45 3.86 261.982 3.86C262.486 3.86 262.948 3.944 263.368 4.112C263.797 4.27067 264.147 4.49933 264.418 4.798L264.054 5.414C263.774 5.134 263.457 4.924 263.102 4.784C262.757 4.644 262.388 4.574 261.996 4.574C261.417 4.574 260.979 4.69533 260.68 4.938C260.381 5.17133 260.232 5.484 260.232 5.876C260.232 6.17467 260.325 6.422 260.512 6.618C260.699 6.80467 260.993 6.94467 261.394 7.038L262.654 7.318C263.289 7.458 263.76 7.67267 264.068 7.962C264.376 8.25133 264.53 8.634 264.53 9.11C264.53 9.52067 264.418 9.88 264.194 10.188C263.97 10.4867 263.657 10.7153 263.256 10.874C262.855 11.0327 262.383 11.112 261.842 11.112ZM266.492 11V3.986H267.346V11H266.492ZM266.352 2.264V1.2H267.5V2.264H266.352ZM272.702 14.122C272.114 14.122 271.563 14.0427 271.05 13.884C270.546 13.7253 270.093 13.4873 269.692 13.17L270 12.512C270.298 12.7267 270.583 12.8947 270.854 13.016C271.134 13.1467 271.423 13.24 271.722 13.296C272.02 13.3613 272.342 13.394 272.688 13.394C273.397 13.394 273.934 13.2027 274.298 12.82C274.662 12.4467 274.844 11.9053 274.844 11.196V8.97H274.998C274.848 9.558 274.536 10.02 274.06 10.356C273.584 10.6827 273.024 10.846 272.38 10.846C271.736 10.846 271.176 10.706 270.7 10.426C270.233 10.1367 269.869 9.73067 269.608 9.208C269.356 8.676 269.23 8.05533 269.23 7.346C269.23 6.63667 269.356 6.02067 269.608 5.498C269.869 4.97533 270.233 4.574 270.7 4.294C271.176 4.00467 271.736 3.86 272.38 3.86C273.024 3.86 273.584 4.028 274.06 4.364C274.536 4.69067 274.848 5.15267 274.998 5.75L274.844 5.596L274.97 3.986H275.81C275.772 4.25667 275.744 4.52267 275.726 4.784C275.707 5.04533 275.698 5.302 275.698 5.554V11.07C275.698 12.078 275.441 12.8387 274.928 13.352C274.424 13.8653 273.682 14.122 272.702 14.122ZM272.478 10.118C273.206 10.118 273.78 9.87533 274.2 9.39C274.629 8.90467 274.844 8.22333 274.844 7.346C274.844 6.478 274.629 5.80133 274.2 5.316C273.78 4.83067 273.206 4.588 272.478 4.588C271.75 4.588 271.171 4.83067 270.742 5.316C270.312 5.80133 270.098 6.478 270.098 7.346C270.098 8.22333 270.312 8.90467 270.742 9.39C271.171 9.87533 271.75 10.118 272.478 10.118ZM278.004 11V5.554C278.004 5.302 277.994 5.04533 277.976 4.784C277.957 4.52267 277.929 4.25667 277.892 3.986H278.732L278.858 5.596H278.69C278.895 5.036 279.226 4.60667 279.684 4.308C280.141 4.00933 280.673 3.86 281.28 3.86C282.11 3.86 282.736 4.07933 283.156 4.518C283.585 4.95667 283.8 5.64267 283.8 6.576V11H282.946V6.646C282.946 5.92733 282.801 5.40933 282.512 5.092C282.222 4.76533 281.774 4.602 281.168 4.602C280.458 4.602 279.894 4.81667 279.474 5.246C279.063 5.67533 278.858 6.254 278.858 6.982V11H278.004ZM289.108 11.112C288.044 11.112 287.199 10.7947 286.574 10.16C285.958 9.52533 285.65 8.64333 285.65 7.514C285.65 6.76733 285.785 6.12333 286.056 5.582C286.336 5.04067 286.723 4.62067 287.218 4.322C287.712 4.014 288.286 3.86 288.94 3.86C289.565 3.86 290.092 3.99533 290.522 4.266C290.951 4.52733 291.282 4.90533 291.516 5.4C291.749 5.88533 291.866 6.464 291.866 7.136V7.528H286.266V6.912H291.334L291.096 7.094C291.096 6.30067 290.914 5.68 290.55 5.232C290.186 4.77467 289.644 4.546 288.926 4.546C288.16 4.546 287.563 4.812 287.134 5.344C286.704 5.86667 286.49 6.562 286.49 7.43V7.528C286.49 8.46133 286.718 9.17067 287.176 9.656C287.642 10.1413 288.291 10.384 289.122 10.384C289.551 10.384 289.952 10.3187 290.326 10.188C290.699 10.0573 291.058 9.83333 291.404 9.516L291.754 10.146C291.455 10.454 291.068 10.692 290.592 10.86C290.116 11.028 289.621 11.112 289.108 11.112ZM296.345 11.112C295.72 11.112 295.174 10.9673 294.707 10.678C294.24 10.3887 293.881 9.97333 293.629 9.432C293.377 8.89067 293.251 8.242 293.251 7.486C293.251 6.73 293.377 6.086 293.629 5.554C293.881 5.01267 294.24 4.59733 294.707 4.308C295.174 4.00933 295.72 3.86 296.345 3.86C296.989 3.86 297.544 4.028 298.011 4.364C298.487 4.69067 298.804 5.14333 298.963 5.722H298.795V0.695999H299.649V11H298.809V9.236H298.963C298.804 9.824 298.487 10.286 298.011 10.622C297.544 10.9487 296.989 11.112 296.345 11.112ZM296.457 10.384C297.166 10.384 297.736 10.1367 298.165 9.642C298.604 9.14733 298.823 8.42867 298.823 7.486C298.823 6.54333 298.604 5.82467 298.165 5.33C297.736 4.83533 297.166 4.588 296.457 4.588C295.748 4.588 295.178 4.83533 294.749 5.33C294.329 5.82467 294.119 6.54333 294.119 7.486C294.119 8.42867 294.329 9.14733 294.749 9.642C295.178 10.1367 295.748 10.384 296.457 10.384ZM308.843 11.112C308.19 11.112 307.63 10.9487 307.163 10.622C306.706 10.286 306.398 9.824 306.239 9.236H306.393V11H305.539V0.695999H306.393V5.722H306.239C306.398 5.14333 306.706 4.69067 307.163 4.364C307.63 4.028 308.19 3.86 308.843 3.86C309.478 3.86 310.024 4.00933 310.481 4.308C310.948 4.59733 311.307 5.01267 311.559 5.554C311.82 6.086 311.951 6.73467 311.951 7.5C311.951 8.24667 311.82 8.89067 311.559 9.432C311.298 9.97333 310.934 10.3887 310.467 10.678C310.01 10.9673 309.468 11.112 308.843 11.112ZM308.717 10.384C309.436 10.384 310.01 10.1413 310.439 9.656C310.868 9.16133 311.083 8.44267 311.083 7.5C311.083 6.55733 310.868 5.83867 310.439 5.344C310.01 4.84 309.436 4.588 308.717 4.588C308.008 4.588 307.438 4.83533 307.009 5.33C306.589 5.82467 306.379 6.54333 306.379 7.486C306.379 8.42867 306.589 9.14733 307.009 9.642C307.438 10.1367 308.008 10.384 308.717 10.384ZM313.406 14.178L313.196 13.436C313.635 13.3333 313.999 13.2073 314.288 13.058C314.578 12.918 314.82 12.7313 315.016 12.498C315.212 12.2647 315.385 11.9753 315.534 11.63L315.898 10.79L315.884 11.168L312.818 3.986H313.77L316.444 10.468H316.094L318.74 3.986H319.664L316.416 11.672C316.239 12.1013 316.043 12.456 315.828 12.736C315.623 13.0253 315.399 13.2633 315.156 13.45C314.914 13.646 314.648 13.8 314.358 13.912C314.069 14.024 313.752 14.1127 313.406 14.178ZM323.854 11L328.152 1.13H328.936L333.304 11H332.394L331.162 8.158L331.568 8.368H325.492L325.968 8.158L324.764 11H323.854ZM328.53 2.18L326.136 7.794L325.814 7.626H331.246L331.008 7.794L328.558 2.18H328.53ZM334.978 11V1.13H335.734L339.85 10.426H339.444L343.574 1.13H344.316V11H343.518V2.152H343.896L339.962 11H339.332L335.398 2.152H335.776V11H334.978ZM345.975 11L350.273 1.13H351.057L355.425 11H354.515L353.283 8.158L353.689 8.368H347.613L348.089 8.158L346.885 11H345.975ZM350.651 2.18L348.257 7.794L347.935 7.626H353.367L353.129 7.794L350.679 2.18H350.651ZM357.099 11V1.13H357.799L364.407 9.978H364.099V1.13H364.897V11H364.211L357.603 2.152H357.897V11H357.099ZM367.363 11V3.986H368.217V11H367.363ZM367.223 2.264V1.2H368.371V2.264H367.223ZM373.319 11L377.617 1.13H378.401L382.769 11H381.859L380.627 8.158L381.033 8.368H374.957L375.433 8.158L374.229 11H373.319ZM377.995 2.18L375.601 7.794L375.279 7.626H380.711L380.473 7.794L378.023 2.18H377.995ZM384.289 11V5.624C384.289 5.35333 384.279 5.08267 384.261 4.812C384.251 4.532 384.228 4.25667 384.191 3.986H385.031L385.143 5.596L384.975 5.61C385.068 5.218 385.236 4.896 385.479 4.644C385.721 4.38267 386.001 4.18667 386.319 4.056C386.636 3.92533 386.963 3.86 387.299 3.86C387.42 3.86 387.532 3.86933 387.635 3.888C387.747 3.89733 387.849 3.916 387.943 3.944L387.915 4.714C387.803 4.67667 387.691 4.65333 387.579 4.644C387.467 4.63467 387.345 4.63 387.215 4.63C386.795 4.63 386.426 4.73267 386.109 4.938C385.801 5.14333 385.563 5.40467 385.395 5.722C385.227 6.03933 385.143 6.36133 385.143 6.688V11H384.289ZM391.821 11.112C391.195 11.112 390.715 10.9253 390.379 10.552C390.052 10.1787 389.889 9.60467 389.889 8.83V4.672H388.489V3.986H389.889V2.026L390.743 1.746V3.986H392.815V4.672H390.743V8.704C390.743 9.292 390.836 9.71667 391.023 9.978C391.209 10.2393 391.508 10.37 391.919 10.37C392.105 10.37 392.269 10.3513 392.409 10.314C392.558 10.2767 392.684 10.2347 392.787 10.188V10.944C392.675 10.9907 392.53 11.028 392.353 11.056C392.175 11.0933 391.998 11.112 391.821 11.112Z" fill="white"/>
</svg>
