<svg width="17" height="14" viewBox="0 0 17 14" fill="none" xmlns="http://www.w3.org/2000/svg">
<path d="M9.64 6.92V13.592H16.36V9.176C16.36 7.512 16.072 5.992 15.496 4.616C14.92 3.24 13.944 1.864 12.568 0.487998L10.072 2.408C10.84 3.272 11.448 4.056 11.896 4.76C12.312 5.464 12.584 6.184 12.712 6.92H9.64ZM0.375999 6.92V13.592H7.096V9.176C7.096 7.512 6.808 5.992 6.232 4.616C5.656 3.24 4.68 1.864 3.304 0.487998L0.808 2.408C1.576 3.272 2.184 4.056 2.632 4.76C3.048 5.464 3.32 6.184 3.448 6.92H0.375999Z" fill="#029837"/>
</svg>
